<svg id="Слой_1" xmlns="http://www.w3.org/2000/svg" viewBox="0 0 120 120"><style>.st0{fill:#966bf7}.st1{opacity:.25;enable-background:new}.st2{fill:#f25a7e}.st3{fill:#fff}.st4{opacity:.25}.st5{fill:#e6e4ed}.st6{fill:#1c1628}.st7{fill:none}</style><path class="st0" d="M90.1 92.6l3.3 8.9-66.8-.1 3.2-8.8zM24 83.3c1.3 0 2.4 1.1 2.4 2.3 0 1.3-1.1 2.4-2.4 2.4-1.3 0-2.4-1.1-2.4-2.4 0-1.3 1.1-2.3 2.4-2.3zm18 0c1.3 0 2.4 1.1 2.4 2.3 0 1.3-1.1 2.4-2.4 2.4-1.3 0-2.4-1.1-2.4-2.4 0-1.3 1.1-2.3 2.4-2.3zm18 0c1.3 0 2.3 1.1 2.3 2.3 0 1.3-1.1 2.4-2.3 2.4-1.3 0-2.4-1.1-2.4-2.4 0-1.3 1.1-2.3 2.4-2.3zm18 0c1.3 0 2.4 1.1 2.4 2.3 0 1.3-1.1 2.4-2.4 2.4-1.3 0-2.4-1.1-2.4-2.4.1-1.3 1.1-2.3 2.4-2.3zm18 0c1.3 0 2.4 1.1 2.4 2.3 0 1.3-1.1 2.4-2.4 2.4-1.3 0-2.4-1.1-2.4-2.4.1-1.3 1.1-2.3 2.4-2.3zM7.9 71.1l104.3.1h2.8c2.1 0 3.7 1.7 3.7 3.7 0 2.1-1.7 3.7-3.7 3.7H5.2c-2.1 0-3.7-1.7-3.7-3.7 0-2.1 1.7-3.7 3.7-3.7l2.7-.1z"/><path class="st1" d="M7.9 78.6H5.2c-2.1 0-3.7-1.7-3.7-3.7 0-2.1 1.7-3.7 3.7-3.7h21.7c-1.9.1-3.5 1.7-3.5 3.7 0 2.1 1.7 3.7 3.7 3.7h2.7"/><path class="st2" d="M7.9 78.6l104.3.1c-1.7 8-8.8 14-17.3 13.9h-4.7l-60.3-.1h-4.7c-4.9 0-9.3-2-12.5-5.2-2.4-2.3-4.1-5.3-4.8-8.7zm90.5 7c0-1.3-1.1-2.3-2.4-2.3-1.3 0-2.4 1.1-2.4 2.3 0 1.3 1.1 2.4 2.4 2.4 1.3 0 2.4-1.1 2.4-2.4zm-18 0c0-1.3-1.1-2.3-2.4-2.3-1.3 0-2.4 1.1-2.4 2.3 0 1.3 1.1 2.4 2.4 2.4 1.3 0 2.4-1.1 2.4-2.4zm-18.1 0c0-1.3-1.1-2.3-2.3-2.3-1.3 0-2.4 1.1-2.4 2.3 0 1.3 1.1 2.4 2.4 2.4 1.3 0 2.3-1.1 2.3-2.4zm-18 0c0-1.3-1.1-2.3-2.4-2.3-1.3 0-2.4 1.1-2.4 2.3 0 1.3 1.1 2.4 2.4 2.4 1.4 0 2.4-1.1 2.4-2.4zm-18 0c0-1.3-1.1-2.3-2.4-2.3-1.3 0-2.4 1.1-2.4 2.3 0 1.3 1.1 2.4 2.4 2.4 1.4 0 2.4-1.1 2.4-2.4zm85.8-14.4L7.9 71.1c1.7-8 8.8-13.9 17.3-13.9h69.7c4.9 0 9.3 2 12.5 5.2 2.3 2.4 4 5.4 4.7 8.8z"/><path class="st3" d="M104.8 67.9c-.4 0-.8-.2-1.1-.5-.2-.2-.4-.5-.7-.7-2.2-2.2-5.1-3.4-8.2-3.4-.8 0-1.4-.6-1.4-1.4 0-.8.6-1.4 1.4-1.4 3.8 0 7.5 1.5 10.2 4.2.3.3.6.6.8.9.5.6.4 1.5-.2 1.9-.2.3-.5.4-.8.4z"/><path d="M26.6 101.4l3.2-8.8h11.8l-3.3 8.8m3.3-8.8h-4.7c-4.9 0-9.3-2-12.5-5.2-2.4-2.4-4-5.4-4.8-8.8H7.9c.7 3.4 2.4 6.4 4.8 8.8 3.2 3.2 7.6 5.2 12.5 5.2h16.4M7.9 71.1c1.7-8 8.8-13.9 17.3-13.9h11.7c-8.5 0-15.6 6-17.3 13.9" class="st4"/><path class="st5" d="M95.7 54.2v3H24.3v-3c0-19.7 16-35.7 35.7-35.7 19.7 0 35.7 16 35.7 35.7z"/><path class="st1" d="M67 19.2c-16.3 3.3-28.6 17.7-28.6 35v3H24.3v-3c0-19.7 16-35.7 35.7-35.7 2.4 0 4.8.3 7 .7z"/><path class="st6" d="M94.8 94h-4.7c-.8 0-1.4-.6-1.4-1.4 0-.8.6-1.4 1.4-1.4h4.7c7.6 0 14.3-5.4 15.9-12.9.2-.7.9-1.2 1.6-1.1.7.2 1.2.9 1.1 1.6-1.8 8.9-9.6 15.2-18.6 15.2zm-65-.1h-4.7c-5.1 0-9.9-2-13.5-5.6-2.6-2.6-4.4-5.9-5.2-9.5-.2-.7.3-1.5 1.1-1.6.7-.2 1.5.3 1.6 1.1.7 3.1 2.2 5.9 4.4 8.1 3.1 3.1 7.2 4.8 11.5 4.8h4.7c.8 0 1.4.6 1.4 1.4.1.7-.5 1.3-1.3 1.3zm82.3-21.3c-.6 0-1.2-.4-1.3-1.1-.7-3.1-2.2-5.9-4.4-8.1-3.1-3.1-7.2-4.8-11.5-4.8-.8 0-1.4-.6-1.4-1.4 0-.8.6-1.4 1.4-1.4 5.1 0 9.9 2 13.5 5.6 2.6 2.6 4.4 5.9 5.2 9.5.2.7-.3 1.5-1.1 1.6-.2 0-.3.1-.4.1zm-104.3 0c-.1 0-.3 0-.4-.1-.7-.2-1.1-.9-1-1.6v-.1c1.9-8.7 9.7-15 18.6-15 .8 0 1.4.6 1.4 1.4 0 .8-.6 1.4-1.4 1.4-7.6 0-14.3 5.4-15.9 12.8v.1c-.1.7-.7 1.1-1.3 1.1zm88.3 0H85.6c-.8 0-1.4-.6-1.4-1.4 0-.8.6-1.4 1.4-1.4h10.5c.8 0 1.4.6 1.4 1.4 0 .8-.6 1.4-1.4 1.4z"/><path class="st6" d="M114.9 80.1L5.1 80c-1.4 0-2.6-.5-3.6-1.5S0 76.2 0 74.9c0-2.8 2.3-5.1 5.1-5.1l74.8.1c.8 0 1.4.6 1.4 1.4 0 .8-.6 1.4-1.4 1.4l-74.8-.2c-1.3 0-2.4 1.1-2.4 2.3 0 .6.2 1.2.7 1.7.4.4 1 .7 1.7.7l109.8.1c1.3 0 2.4-1.1 2.4-2.3 0-.6-.2-1.2-.7-1.7-.4-.4-1-.7-1.7-.7h-12.6c-.8 0-1.4-.6-1.4-1.4 0-.8.6-1.4 1.4-1.4h12.6c1.4 0 2.7.5 3.6 1.5 1 1 1.5 2.3 1.5 3.6 0 2.9-2.3 5.2-5.1 5.2zM95.7 58.6H24.3c-.8 0-1.4-.6-1.4-1.4v-3c0-20.4 16.6-37 37.1-37 5.5 0 10.8 1.2 15.8 3.5.7.3 1 1.1.7 1.8-.3.7-1.1 1-1.8.7C70 21 65.1 19.9 60 19.9c-18.9 0-34.3 15.4-34.3 34.3v1.6h68.6v-1.6c0-9.5-4-18.6-10.9-25.1-.6-.5-.6-1.4-.1-2 .5-.6 1.4-.6 2-.1C92.7 34 97 43.9 97 54.2v3c0 .8-.6 1.4-1.3 1.4z"/><path class="st3" d="M91 54.3c-.7 0-1.3-.5-1.4-1.2v-.6c0-.7.5-1.3 1.2-1.4.8-.1 1.4.5 1.5 1.2v.6c0 .7-.5 1.3-1.2 1.4H91z"/><path class="st6" d="M93.4 102.9h-5.2c-.8 0-1.4-.6-1.4-1.4 0-.8.6-1.4 1.4-1.4h3.2L89.1 94l-58.3-.1-2.2 6.1 53.8.1c.8 0 1.4.6 1.4 1.4 0 .8-.6 1.4-1.4 1.4l-55.8-.1c-.5 0-.9-.2-1.1-.6-.3-.4-.3-.8-.2-1.3l3.3-8.8c.2-.5.7-.9 1.3-.9l60.3.1c.6 0 1.1.4 1.3.9l3.2 8.9c.2.4.1.9-.2 1.3-.3.2-.7.5-1.1.5zM24 89.4c-2.1 0-3.7-1.7-3.7-3.7 0-2.1 1.7-3.7 3.7-3.7 2.1 0 3.7 1.7 3.7 3.7S26 89.4 24 89.4zm0-4.7c-.5 0-1 .4-1 1 0 .5.4 1 1 1 .5 0 1-.4 1-1s-.5-1-1-1zm54 4.7c-2.1 0-3.7-1.7-3.7-3.7 0-2.1 1.7-3.7 3.7-3.7 2.1 0 3.7 1.7 3.7 3.7s-1.6 3.7-3.7 3.7zm0-4.7c-.5 0-1 .4-1 1 0 .5.4 1 1 1 .5 0 1-.4 1-1s-.5-1-1-1zm-36 4.7c-2.1 0-3.7-1.7-3.7-3.7 0-2.1 1.7-3.7 3.7-3.7 2.1 0 3.7 1.7 3.7 3.7S44 89.4 42 89.4zm0-4.7c-.5 0-1 .4-1 1 0 .5.4 1 1 1 .5 0 1-.4 1-1s-.5-1-1-1zm54 4.7c-2.1 0-3.7-1.7-3.7-3.7 0-2.1 1.7-3.7 3.7-3.7 2.1 0 3.7 1.7 3.7 3.7s-1.6 3.7-3.7 3.7zm0-4.7c-.5 0-1 .4-1 1 0 .5.4 1 1 1 .5 0 1-.4 1-1s-.5-1-1-1zm-36 4.7c-2.1 0-3.7-1.7-3.7-3.7 0-2.1 1.7-3.7 3.7-3.7 2.1 0 3.7 1.7 3.7 3.7s-1.6 3.7-3.7 3.7zm0-4.7c-.5 0-1 .4-1 1 0 .5.4 1 1 1 .5 0 1-.4 1-1s-.5-1-1-1z"/><path class="st3" d="M90.2 48.9c-.6 0-1.2-.4-1.3-1.1A29.9 29.9 0 0 0 69.1 26c-.7-.2-1.1-1-.9-1.7.2-.7 1-1.1 1.7-.9 10.9 3.5 19.2 12.7 21.6 23.8.2.7-.3 1.5-1.1 1.6 0 .1-.1.1-.2.1zm-25.6-24h-.2c-1.4-.2-2.9-.3-4.4-.3-.8 0-1.4-.6-1.4-1.4 0-.8.6-1.4 1.4-1.4 1.6 0 3.2.1 4.8.4.8.1 1.3.8 1.2 1.6-.2.6-.8 1.1-1.4 1.1z"/><path class="st7" d="M0 0h120v120H0z"/></svg>