<svg id="Слой_1" xmlns="http://www.w3.org/2000/svg" viewBox="0 0 120 120"><style>.st0{fill:#966bf7}.st1{fill:#453966}.st2{fill:#5befeb}.st3{opacity:.25;enable-background:new}.st4{fill:#a691f2}.st5{fill:#1c1628}.st6{fill:#d37a22}.st7{fill:#fff}.st8{fill:none}</style><path transform="rotate(-45.001 108.327 73.6)" class="st0" d="M100.1 67.1h16.4v13h-16.4z"/><path class="st0" d="M100.3 54l9.2 9.2-11.6 11.6-9.2-9.2 1.5-1.5zM56.8 10.5l9.2 9.2-10.1 10.1-1.5 1.5-9.2-9.2z"/><path transform="rotate(-45.001 46.401 11.684)" class="st0" d="M38.2 5.2h16.4v13H38.2z"/><path class="st0" d="M72 37.4c2.5.5 4.9 1.7 6.9 3.7s3.2 4.4 3.7 6.9c-3 1.6-6.7 1.1-9.2-1.4-2.5-2.5-3-6.2-1.4-9.2z"/><path transform="rotate(-45.001 96.743 85.172)" class="st0" d="M88.6 78.7H105v13H88.6z"/><path class="st0" d="M88.7 65.6l9.2 9.2-11.5 11.6-9.3-9.3 7.7-7.6zM45.2 22.1l9.2 9.2-3.9 3.9-7.6 7.7-9.3-9.3z"/><path transform="rotate(-45.001 34.83 23.257)" class="st0" d="M26.6 16.7H43v13H26.6z"/><path class="st1" d="M78.9 60.1l-19-19c3.3-3.3 7.9-4.5 12.1-3.7-1.6 3-1.1 6.7 1.4 9.2 2.5 2.5 6.2 2.9 9.2 1.4.2.9.3 1.7.3 2.6-.1 3.4-1.4 6.9-4 9.5z"/><path class="st2" d="M59.9 41.1l19 19-2.1 2.1-5.4 5.4-5.9 5.9-4.9 4.8-18.9-18.9 4.8-4.9 5.9-5.9 5.4-5.4z"/><path class="st3" d="M59.9 41.1l19 19-2.1 2.1-5.4 5.4-5.9 5.9s9-6.6-4.9 4.9c9.2-20.7-.7-37.3-.7-37.3z"/><path transform="rotate(-45.001 85.169 96.746)" class="st0" d="M77 90.2h16.4v13H77z"/><path class="st0" d="M77.1 77.1l9.3 9.3-11.6 11.5-9.2-9.2 1.8-1.8zM33.6 33.6l9.3 9.3-9.8 9.7-1.8 1.8-9.2-9.2z"/><path transform="rotate(-45.001 23.255 34.83)" class="st0" d="M15.1 28.3h16.4v13H15.1z"/><path class="st1" d="M41.7 59.4l18.9 18.9-3.8 3.9-3.3-3.3-12.4-12.4-3.3-3.3z"/><path transform="rotate(-45.001 73.596 108.32)" class="st0" d="M65.4 101.8h16.4v13H65.4z"/><path transform="rotate(-45.001 64.393 99.115)" class="st0" d="M56.2 92.6h16.4v13H56.2z"/><path transform="rotate(-45.001 20.89 55.612)" class="st0" d="M12.7 49.1h16.4v13H12.7z"/><path transform="rotate(-45.001 11.682 46.404)" class="st0" d="M3.5 39.9h16.4v13H3.5z"/><path class="st4" d="M56.8 10.5l9.2 9.2-10.1 10.1-1.5 1.5zm-9.2-9.2l9.2 9.2-11.6 11.6z"/><path class="st4" d="M45.2 22.1l9.2 9.2-3.9 3.9-7.6 7.7zM36 12.9l9.2 9.2-11.6 11.5zm-2.4 20.7l9.3 9.3-9.8 9.7-1.8 1.8zM22.1 45.2l11.5-11.6-9.2-9.2zm0 0l9.2 9.2L19.7 66zM12.9 36l9.2 9.2-11.6 11.6z"/><path class="st0" d="M53.5 78.9l-.4.4-1.9 2-2.6-2.6-9.1 9.2 2.5 2.5-2.7 2.8-.1-.1-12.4-12.4 2.8-2.7 2.5 2.5 9.2-9.1-2.5-2.4-.1-.2h.1l1.9-1.9.4-.4z"/><path class="st1" d="M51.2 81.3l3.3 3.3-9.2 9.1-3.3-3.3-2.5-2.5 9.1-9.2zM38.7 68.8l2.6 2.6-9.2 9.1-2.5-2.5-3.3-3.3 9.1-9.2z"/><path class="st5" d="M56.8 83.5c-.3 0-.7-.1-.9-.4l-3.3-3.3c-.5-.5-.5-1.3 0-1.8s1.3-.5 1.8 0l2.4 2.4L78 59.2c2.3-2.3 3.6-5.3 3.6-8.6 0-.8-.1-1.6-.2-2.4-.2-1.2-.6-2.3-1.2-3.4-.3-.6-.1-1.4.5-1.8.6-.3 1.4-.1 1.8.5.7 1.3 1.2 2.7 1.5 4.2.2.9.3 1.9.3 2.8 0 3.9-1.5 7.6-4.3 10.4L57.7 83.1c-.2.3-.6.4-.9.4zm22.1-41.1c-.3 0-.7-.1-.9-.4-.4-.4-.9-.9-1.4-1.2-.6-.4-.7-1.2-.3-1.8.4-.6 1.2-.7 1.8-.3.6.4 1.2.9 1.7 1.5.5.5.5 1.3 0 1.8-.2.3-.6.4-.9.4zM41.1 67.8c-.3 0-.7-.1-.9-.4l-3.3-3.3c-.5-.5-.5-1.3 0-1.8L59 40.2c3.5-3.5 8.4-5 13.3-4 .7.1 1.4.3 2.1.6.7.2 1 1 .8 1.7-.2.7-1 1-1.7.8-.6-.2-1.2-.4-1.8-.5-4-.8-8.1.5-10.9 3.3L39.6 63.2l2.4 2.4c.5.5.5 1.3 0 1.8-.2.3-.6.4-.9.4z"/><path class="st5" d="M78.9 61.1c-.3 0-.5-.1-.7-.3l-19-19c-.4-.4-.4-1.1 0-1.5.4-.4 1.1-.4 1.5 0l19 19c.4.4.4 1.1 0 1.5-.3.2-.5.3-.8.3zm-32.4-5.3h-.2L32.8 54c-.7-.1-1.2-.7-1.1-1.5.1-.7.7-1.2 1.5-1.1l13.5 1.8c.7.1 1.2.7 1.1 1.5-.1.6-.6 1.1-1.3 1.1z"/><path class="st6" d="M40.1 88.5l1.9 1.9-2.8 2.8-.1-.1c.5-1.6.8-3.1 1-4.6z"/><path class="st3" d="M53.1 79.3l-2 2-2.5-2.5-8.2 8.2c.7-5.4.3-10.2-.5-14.1-.3-1.4-.6-2.7-1-3.9v-.2l1.9-1.9 12.3 12.4z"/><path class="st5" d="M57.8 44.5c-.6 0-1.2-.5-1.3-1.1L54.6 30c-.1-.7.4-1.4 1.1-1.5.7-.1 1.4.4 1.5 1.1L59 43.1c.1.7-.4 1.4-1.1 1.5 0-.1-.1-.1-.1-.1zm-5.4 5.4c-.6 0-1.2-.5-1.3-1.1l-1.8-13.5c-.1-.7.4-1.4 1.1-1.5.7-.1 1.4.4 1.5 1.1l1.8 13.5c.1.7-.4 1.4-1.1 1.5h-.2zm15 38.3c-.6 0-1.2-.5-1.3-1.1l-1.8-13.5c-.1-.7.4-1.4 1.1-1.5.7-.1 1.4.4 1.5 1.1l1.8 13.5c.1.7-.4 1.4-1.1 1.5h-.2zm22.8-22.8H90l-13.5-1.8c-.7-.1-1.2-.7-1.1-1.5.1-.7.8-1.2 1.5-1.1l13.5 1.8c.7.1 1.2.7 1.1 1.5-.1.6-.6 1.1-1.3 1.1zm-5.4 5.3h-.2l-13.5-1.8c-.7-.1-1.2-.7-1.1-1.5.1-.7.7-1.2 1.5-1.1L85 68.2c.7.1 1.2.7 1.1 1.5-.1.6-.6 1-1.3 1z"/><path class="st4" d="M109.5 63.2l9.2 9.2-10.1 10.1-1.5 1.5zm-9.2-9.2l9.2 9.2-11.6 11.6zm-2.4 20.8l9.2 9.2-3.9 3.9-7.6 7.7zm-9.2-9.2l9.2 9.2-11.5 11.6zm-2.3 20.8l9.2 9.2-9.8 9.7-1.8 1.8zM74.8 97.9l11.6-11.5-9.3-9.3zm0 0l9.2 9.2-11.6 11.6zm-9.2-9.2l9.2 9.2-11.6 11.6z"/><path class="st5" d="M19.7 67.3c-.3 0-.7-.1-.9-.4l-9.2-9.2-9.2-9.2c-.3-.2-.4-.6-.4-.9s.1-.7.4-.9L46.7.4c.5-.5 1.3-.5 1.8 0l18.4 18.4c.5.5.5 1.3 0 1.8L20.6 66.9c-.2.3-.6.4-.9.4zm-8.3-11.4l8.3 8.3 44.5-44.5L47.6 3.1 3.1 47.6l8.3 8.3z"/><path class="st5" d="M53.3 15.3c-.3 0-.7-.1-.9-.4-.5-.5-.5-1.3 0-1.8l3.5-3.5c.5-.5 1.3-.5 1.8 0s.5 1.3 0 1.8l-3.5 3.5c-.2.2-.6.4-.9.4zM10.5 58.1c-.3 0-.7-.1-.9-.4-.5-.5-.5-1.3 0-1.8L49.5 16c.5-.5 1.3-.5 1.8 0s.5 1.3 0 1.8L11.4 57.7c-.2.3-.6.4-.9.4z"/><path class="st5" d="M54.4 32.6c-.3 0-.7-.1-.9-.4L35.1 13.8c-.5-.5-.5-1.3 0-1.8s1.3-.5 1.8 0l18.4 18.4c.5.5.5 1.3 0 1.8-.2.2-.5.4-.9.4zM42.9 44.1c-.3 0-.7-.1-.9-.4l-3.8-3.8c-.5-.5-.5-1.3 0-1.8s1.3-.5 1.8 0l3.8 3.8c.5.5.5 1.3 0 1.8-.3.3-.6.4-.9.4zm-6.5-6.4c-.3 0-.7-.1-.9-.4l-12-12c-.5-.5-.5-1.3 0-1.8s1.3-.5 1.8 0l12 12c.5.5.5 1.3 0 1.8-.2.3-.5.4-.9.4zm-5.1 18c-.3 0-.7-.1-.9-.4L17.1 42c-.5-.5-.5-1.3 0-1.8s1.3-.5 1.8 0l13.3 13.3c.5.5.5 1.3 0 1.8-.3.3-.6.4-.9.4zM15.5 39.9c-.3 0-.7-.1-.9-.4L12 36.9c-.5-.5-.5-1.3 0-1.8s1.3-.5 1.8 0l2.6 2.6c.5.5.5 1.3 0 1.8-.3.3-.6.4-.9.4zM72.4 120c-.3 0-.7-.1-.9-.4l-18.4-18.4c-.5-.5-.5-1.3 0-1.8l46.3-46.3c.5-.5 1.3-.5 1.8 0l18.4 18.4c.5.5.5 1.3 0 1.8l-46.3 46.3c-.2.3-.6.4-.9.4zm-8.3-11.4l8.3 8.3 44.5-44.5-16.6-16.6-44.5 44.5 8.3 8.3z"/><path class="st5" d="M93.3 80.7c-.3 0-.7-.1-.9-.4-.5-.5-.5-1.3 0-1.8l16.2-16.2c.5-.5 1.3-.5 1.8 0s.5 1.3 0 1.8L94.2 80.3c-.3.3-.6.4-.9.4zm-30.1 30.1c-.3 0-.7-.1-.9-.4-.5-.5-.5-1.3 0-1.8l26.1-26.1c.5-.5 1.3-.5 1.8 0s.5 1.3 0 1.8l-26.1 26.1c-.2.3-.6.4-.9.4zm43.9-25.5c-.3 0-.7-.1-.9-.4l-5-5c-.5-.5-.5-1.3 0-1.8s1.3-.5 1.8 0l5 5c.5.5.5 1.3 0 1.8-.2.3-.5.4-.9.4z"/><path class="st5" d="M100 78.2c-.3 0-.7-.1-.9-.4L87.8 66.5c-.5-.5-.5-1.3 0-1.8s1.3-.5 1.8 0L100.9 76c.5.5.5 1.3 0 1.8-.2.2-.5.4-.9.4zm-4.4 18.7c-.3 0-.7-.1-.9-.4L76.2 78.1c-.5-.5-.5-1.3 0-1.8s1.3-.5 1.8 0l18.4 18.4c.5.5.5 1.3 0 1.8-.2.2-.5.4-.8.4zM84 108.4c-.3 0-.7-.1-.9-.4L70.7 95.7c-.5-.5-.5-1.3 0-1.8s1.3-.5 1.8 0l12.4 12.4c.5.5.5 1.3 0 1.8-.3.2-.6.3-.9.3zm-15.1-15c-.3 0-.7-.1-.9-.4l-3.4-3.4c-.5-.5-.5-1.3 0-1.8s1.3-.5 1.8 0l3.4 3.4c.5.5.5 1.3 0 1.8-.2.3-.5.4-.9.4zm10-43.2c-2.3 0-4.7-.9-6.4-2.7-2.9-2.9-3.5-7.2-1.6-10.7.3-.6 1.1-.9 1.7-.5.6.3.9 1.1.5 1.7-1.3 2.5-.9 5.7 1.1 7.7s5.1 2.5 7.7 1.1c.6-.3 1.4-.1 1.7.5.3.6.1 1.4-.5 1.7-1.3.9-2.7 1.2-4.2 1.2zM60.6 79.6c-.3 0-.7-.1-.9-.4l-6.1-6.1c-.5-.5-.5-1.3 0-1.8s1.3-.5 1.8 0l6.1 6.1c.5.5.5 1.3 0 1.8-.2.3-.5.4-.9.4zm-8.8-8.8c-.3 0-.7-.1-.9-.4L40.7 60.3c-.5-.5-.5-1.3 0-1.8s1.3-.5 1.8 0l10.1 10.1c.5.5.5 1.3 0 1.8-.2.2-.5.4-.8.4zM39.3 94.5c-.3 0-.7-.1-.9-.4L25.9 81.7c-.2-.2-.4-.6-.4-.9 0-.3.1-.7.4-.9l2.8-2.8c.5-.5 1.3-.5 1.8 0s.5 1.3 0 1.8l-1.8 1.8 10.6 10.6 1.8-1.8c.5-.5 1.3-.5 1.8 0s.5 1.3 0 1.8l-2.8 2.8c-.2.2-.5.4-.8.4zm11.9-11.9c-.3 0-.7-.1-.9-.4-.5-.5-.5-1.3 0-1.8l1.4-1.4-10.6-10.7-1.4 1.4c-.5.5-1.3.5-1.8 0s-.5-1.3 0-1.8l2.4-2.4c.5-.5 1.3-.5 1.8 0L54.4 78c.5.5.5 1.3 0 1.8L52 82.2c-.2.2-.5.4-.8.4z"/><path class="st5" d="M32.1 81.8c-.3 0-.7-.1-.9-.4l-5.9-5.9c-.2-.2-.3-.5-.3-.8 0-.3.1-.7.4-.9l9.1-9.1c.5-.5 1.3-.5 1.8 0l5.9 5.9c.5.5.5 1.3 0 1.8l-9.1 9.1c-.3.2-.6.3-1 .3zm-4-7.1l4 4 7.3-7.3-4-4-7.3 7.3zM45.3 95c-.3 0-.7-.1-.9-.4l-5.9-5.9c-.5-.5-.5-1.3 0-1.8l9.1-9.1c.5-.5 1.3-.5 1.8 0l5.9 5.9c.5.5.5 1.3 0 1.8l-9.1 9.1c-.2.3-.5.4-.9.4zm-4-7.1l4 4 7.3-7.3-4-4-7.3 7.3z"/><path class="st7" d="M65.8 42.8c-.4 0-.8-.2-1-.6-.2-.5 0-1.1.6-1.3 1.3-.5 2.6-.8 4-.8.6 0 1 .5 1 1 0 .6-.5 1-1 1-1.1 0-2.2.2-3.2.6-.2.1-.3.1-.4.1zm12.4 12.5c-.1 0-.3 0-.4-.1-.5-.2-.8-.8-.6-1.4.4-1 .6-2.1.6-3.3 0-.6-.1-1.1-.2-1.7-.3-1.7-1.1-3.2-2.3-4.4-.4-.4-.4-1.1 0-1.5.4-.4 1.1-.4 1.5 0 1.5 1.5 2.5 3.4 2.9 5.4.1.7.2 1.4.2 2.1 0 1.4-.3 2.8-.8 4.1-.1.5-.5.8-.9.8zm-31.3 5.3c-.3 0-.5-.1-.7-.3-.4-.4-.4-1.1 0-1.5l1.5-1.5c.4-.4 1.1-.4 1.5 0 .4.4.4 1.1 0 1.5l-1.5 1.5c-.2.2-.5.3-.8.3zm4.6-4.6c-.3 0-.5-.1-.7-.3-.4-.4-.4-1.1 0-1.5l8.3-8.3c.4-.4 1.1-.4 1.5 0 .4.4.4 1.1 0 1.5l-8.3 8.3c-.3.2-.5.3-.8.3zM29.8 75.7c-.3 0-.5-.1-.7-.3-.4-.4-.4-1.1 0-1.5l5.8-5.8c.4-.4 1.1-.4 1.5 0 .4.4.4 1.1 0 1.5l-5.8 5.8c-.3.2-.6.3-.8.3zm13.1 13.1c-.3 0-.5-.1-.7-.3-.4-.4-.4-1.1 0-1.5l5.8-5.8c.4-.4 1.1-.4 1.5 0 .4.4.4 1.1 0 1.5l-5.8 5.8c-.3.2-.6.3-.8.3z"/><path class="st8" d="M0 0h120v120H0z"/></svg>