<svg id="Слой_1" xmlns="http://www.w3.org/2000/svg" viewBox="0 0 120 120"><style>.st0{fill:#e1f4f9}.st1{fill:#1c1628}.st2{fill:#fff}.st3{fill:#f7d789}.st4{fill:#4a3f63}.st5{fill:#5befeb}.st6{fill:#f25a7e}.st7{fill:#d8b86f}.st8{fill:#61d8c4}.st9{fill:#158acc}.st10{fill:#dd582a}.st11{fill:#966bf7}.st12{fill:none}</style><path class="st0" d="M89.1 50.4c2.5.5 5.1.6 7.6.3 5.1-.6 10.1-2.9 14-6.8 9.3-9.3 9.3-24.3 0-33.6s-24.3-9.3-33.6 0c-3.9 3.9-6.2 8.8-6.8 13.9-.3 2.6-.2 5.2.3 7.7"/><path class="st1" d="M93.9 52.2c-1.7 0-3.4-.2-5.1-.5l.6-2.7c2.4.5 4.8.6 7.2.3 5-.6 9.6-2.8 13.2-6.4 4.2-4.2 6.5-9.8 6.5-15.8s-2.3-11.6-6.5-15.8c-8.7-8.7-22.9-8.7-31.6 0-3.6 3.6-5.8 8.1-6.4 13.1-.3 2.4-.2 4.9.3 7.2l-2.7.6c-.6-2.7-.7-5.4-.3-8.1.7-5.6 3.2-10.7 7.2-14.7 9.8-9.8 25.7-9.8 35.5 0 4.7 4.7 7.4 11 7.4 17.8 0 6.7-2.6 13-7.4 17.8-4 4-9.1 6.5-14.8 7.2h-3.1z"/><path class="st2" d="M109.6 16.9c-.4 0-.8-.2-1.1-.6-.6-.8-1.2-1.5-1.9-2.2-1.1-1.1-2.4-2.1-3.8-2.9-.7-.4-.9-1.2-.5-1.9s1.2-.9 1.9-.5c1.6.9 3 2 4.3 3.3.8.8 1.5 1.7 2.2 2.6.4.6.3 1.5-.3 1.9-.2.2-.5.3-.8.3zm-2 24.9c-.4 0-.7-.1-1-.4-.5-.5-.5-1.4 0-1.9 5.2-5.2 6.7-13.2 3.7-19.9-.3-.7 0-1.5.7-1.8.7-.3 1.5 0 1.8.7 1.7 3.8 2.2 7.9 1.4 12-.7 4.2-2.7 8-5.7 11-.2.1-.5.3-.9.3z"/><circle class="st3" cx="79.1" cy="20.6" r="4.2"/><circle class="st3" cx="100.4" cy="41.9" r="4.2"/><path class="st4" d="M79.1 26.1c-1.5 0-2.9-.6-3.9-1.6-2.2-2.2-2.2-5.7 0-7.8 1-1 2.4-1.6 3.9-1.6s2.9.6 3.9 1.6 1.6 2.4 1.6 3.9-.6 2.9-1.6 3.9c-1 1.1-2.4 1.6-3.9 1.6zm0-8.3c-.7 0-1.5.3-2 .8-1.1 1.1-1.1 2.9 0 4 .5.5 1.2.8 2 .8.7 0 1.5-.3 2-.8s.8-1.2.8-2c0-.7-.3-1.5-.8-2s-1.2-.8-2-.8zm21.3 29.6c-1.4 0-2.8-.5-3.9-1.6-1-1-1.6-2.4-1.6-3.9s.6-2.9 1.6-3.9 2.4-1.6 3.9-1.6 2.9.6 3.9 1.6c2.2 2.2 2.2 5.7 0 7.8-1.1 1.1-2.5 1.6-3.9 1.6zm0-8.3c-.7 0-1.5.3-2 .8s-.8 1.2-.8 2c0 .7.3 1.5.8 2 1.1 1.1 2.9 1.1 4 0s1.1-2.9 0-4c-.5-.5-1.2-.8-2-.8z"/><path class="st5" d="M76.9 42.2c-5.7-5.7-5.7-15 0-20.7l3.6-3.6c5.7-5.7 15-5.7 20.7 0l1.9 1.9c5.7 5.7 5.7 15 0 20.7l-3.6 3.6c-5.7 5.7-15 5.7-20.7 0l-1.9-1.9z"/><path class="st6" d="M16.1 42.8l-1.6 1.6c-.9.9-.9 2.4 0 3.3l5.4-1.7-3.8-3.2zm21.4 75.8l-10.1-10.1 3.9-1.6 4.3 4.3z"/><path class="st5" d="M54.5 98.2c-.7.7-1.7 1.7-3 2.9L45 94.6c.6-.8 1.2-1.6 1.8-2.5 2.5 2.2 5.1 4.2 7.7 6.1z"/><path class="st5" d="M45.1 94.7l6.5 6.5c-1 1-2.3 2-3.6 3.1l-6-6c1-1.1 2.1-2.3 3.1-3.6zm-3.2 3.6l6 6c-1.2 1-2.5 1.9-3.9 2.8l-5.5-5.5c1.1-1 2.3-2.1 3.4-3.3z"/><path class="st5" d="M38.5 101.6l5.5 5.5c-1.4.9-2.8 1.7-4.3 2.4l-5-5c1.1-.8 2.4-1.8 3.8-2.9z"/><path class="st5" d="M34.7 104.5l5 5c-1.3.7-2.7 1.2-4.1 1.7l-4.3-4.3s1.4-.8 3.4-2.4z"/><path class="st7" d="M99.1 38.2l-3.4 3.4c-4 4-10.5 4-14.5 0l-1.8-1.8c-4-4-4-10.5 0-14.5l3.4-3.4c4-4 10.5-4 14.5 0l1.8 1.8c4 3.9 4 10.4 0 14.5z"/><path class="st3" d="M96.5 35.6L93.2 39c-4 4-9.5 5-12.2 2.3L79.7 40C77 37.3 78 31.8 82 27.8l3.4-3.4c4-4 9.5-5 12.2-2.3l1.2 1.2c2.8 2.8 1.8 8.3-2.3 12.3z"/><path class="st6" d="M14.1 89.7l-1.6 3.9L2.4 83.5l7.4 1.9z"/><path class="st5" d="M14.1 89.7l-4.3-4.3c.4-1.4 1-2.8 1.7-4.1l5 5c-1.6 2-2.4 3.4-2.4 3.4zm8.7-23.2c1.9 2.6 3.9 5.2 6 7.7-.8.5-1.7 1.1-2.5 1.8l-6.5-6.5c1.2-1.4 2.3-2.4 3-3zm-6.3 19.8l-5-5c.7-1.5 1.6-2.9 2.4-4.3l5.5 5.5c-1.1 1.4-2.1 2.7-2.9 3.8z"/><path class="st5" d="M26.3 75.9c-1.3 1-2.5 2.1-3.6 3.1l-6-6c1.1-1.4 2.1-2.6 3.1-3.6l6.5 6.5zm-6.9 6.6L13.9 77c.9-1.4 1.9-2.7 2.8-3.9l6 6c-1.2 1.1-2.3 2.3-3.3 3.4zm71.7-.3c-.6-.2-1.2-.6-1.6-1.1-1.8-1.8-1.8-4.8 0-6.6 1.3-1.3 3.1-1.7 4.8-1.1.8-2.6 1.4-5 1.9-7 1-4.3 1.2-6.8 1.2-6.8.1-.8.2-1.7.2-2.6l-1.1-6.8c-.4-1.1-.9-2.1-1.4-3.2-5.8 5.3-14.9 5.2-20.5-.5-5.6-5.6-5.8-14.7-.5-20.5-1-.6-2.1-1.1-3.2-1.5l-6.9-1c-.9 0-1.7.1-2.6.2 0 0-2.6.3-6.8 1.2-2.2.5-4.9 1.2-8 2.2l-5.8 2.1c-7.5 2.9-16.1 7.2-24.7 13.7l2 1.7.2.2 1.5 1.3s12-6.7 20.5-6.8L36 43.6 18.8 60.8l3.9 5.7c1.9 2.6 3.9 5.2 6 7.7 2.7 3.3 5.6 6.4 8.6 9.4s6.2 5.9 9.4 8.6c2.5 2.1 5.1 4.1 7.7 6 1.9 1.4 3.8 2.7 5.7 3.9L77.4 85l4.4-4.4c-.1 8.5-6.8 20.5-6.8 20.5l1.5 1.8 1.7 2c5.9-7.8 10-15.7 12.9-22.7zM63.9 71.3L49.7 57.1l12.9-12.9 14.2 14.2-12.9 12.9z"/><path class="st8" d="M89.8 78.2l2-5.8c1-3 1.7-5.7 2.2-8v-.1c.6-2.8.9-5.7.8-8.5l-.2-7.3c-.1-.3-.2-.7-.3-1-9.6 3.4-25.8-2.7-20.9-20.9-.3-.1-.7-.2-1-.3l-7.3-.2c-2.9-.1-5.7.2-8.5.8h-.1c-2.2.5-4.9 1.2-8 2.2l-5.8 2.1c-7.4 2.8-16 7.1-24.5 13.5l1.5 1.3s12-6.7 20.5-6.8l-1.8 5.9c.4.1-17.1 18.4-17.1 18.4l3.3 5.1c1.6 2.3 3.3 4.6 5.1 6.8 2 2.5 4.2 4.9 6.5 7.3.3.3.6.7 1 1l1 1c2.3 2.3 4.7 4.4 7.3 6.5 2.2 1.8 4.5 3.5 6.8 5.1 1.7 1.1 3.3 2.3 5.1 3.3l18.2-18.2c0 .4 6-.6 6-.6 0 1.5-.3 3.2-.6 4.8 0 .2-.1.4-.1.6-.1.5-.2.9-.4 1.4-.1.3-.2.5-.2.8-.9 3.1-2.2 6.1-3.2 8.4 0 .1-.1.2-.1.4-.2.4-.4.9-.6 1.2-.1.2-.1.3-.2.4-.1.2-.2.5-.3.7 0 .1-.1.1-.1.2-.1.1-.1.3-.2.4l-.5 1 1.3 1.5c6.3-8.4 10.6-17 13.4-24.4zM63 70.4L50.6 58l12.9-12.9 12.4 12.4L63 70.4z"/><path class="st6" d="M49.5 30l-3.9 4-4.8-4.8c1.8-.7 3.5-1.3 5.1-1.8.3-.1.5-.2.7-.2l2.9 2.8zm41.6 52.2c-.6-.2-1.2-.6-1.6-1.1-1.8-1.8-1.8-4.8 0-6.6 1.3-1.3 3.1-1.7 4.8-1.1-.2.6-.3 1.1-.5 1.7-.8 2.2-1.7 4.6-2.7 7.1z"/><path class="st4" d="M89.1 49.8c-4.1 0-8.2-1.6-11.3-4.7l-1.9-1.9c-6.2-6.2-6.2-16.4 0-22.6l3.6-3.6c3-3 7-4.7 11.3-4.7 4.3 0 8.3 1.7 11.3 4.7l1.9 1.9c6.2 6.2 6.2 16.4 0 22.6l-3.6 3.6c-3.1 3.1-7.2 4.7-11.3 4.7zm1.7-34.7c-3.5 0-6.9 1.4-9.4 3.9l-3.6 3.6c-5.2 5.2-5.2 13.6 0 18.7l1.9 1.9c5.2 5.2 13.6 5.2 18.7 0l3.6-3.6c5.2-5.2 5.2-13.6 0-18.7l-1.9-1.9c-2.4-2.5-5.7-3.9-9.3-3.9z"/><path class="st4" d="M88.5 45.9c-3.1 0-6-1.2-8.2-3.4l-1.8-1.8c-4.5-4.5-4.5-11.9 0-16.5l3.4-3.4c2.2-2.2 5.1-3.4 8.2-3.4 3.1 0 6 1.2 8.2 3.4l1.8 1.8c4.5 4.5 4.5 11.9 0 16.5l-3.4 3.4c-2.2 2.2-5.1 3.4-8.2 3.4zm1.6-25.7c-2.4 0-4.6.9-6.3 2.6l-3.4 3.4c-3.5 3.5-3.5 9.1 0 12.6l1.8 1.8c1.7 1.7 3.9 2.6 6.3 2.6s4.6-.9 6.3-2.6l3.4-3.4c3.5-3.5 3.5-9.1 0-12.6l-1.8-1.8c-1.7-1.6-3.9-2.6-6.3-2.6z"/><path class="st1" d="M14.1 91.1c-.4 0-.7-.1-1-.4l-4.3-4.3c-.3-.4-.5-.9-.3-1.4.4-1.4 1-2.9 1.7-4.3s1.6-2.9 2.5-4.4c.9-1.3 1.8-2.7 2.9-4 1-1.3 2.1-2.5 3.2-3.7 1.2-1.3 2.3-2.4 3-3.1l1.9 2c-.6.6-1.7 1.6-2.9 2.9-1.1 1.2-2.1 2.4-3 3.6-1 1.3-1.9 2.6-2.8 3.8-.9 1.4-1.7 2.8-2.4 4.1-.5 1.1-1 2.1-1.3 3.2l2.5 2.5c.4-.6.9-1.3 1.5-2.1 1-1.3 2-2.6 3.1-3.8 1.1-1.3 2.2-2.5 3.4-3.6 1.2-1.2 2.5-2.3 3.7-3.2.9-.7 1.7-1.3 2.6-1.8l.7 1.1 1 1-.2.2c-.8.5-1.6 1.1-2.4 1.7-1.2.9-2.3 1.9-3.5 3-1.1 1-2.1 2.2-3.2 3.4-1 1.2-2 2.4-2.9 3.7-1.5 2-2.3 3.3-2.3 3.3-.2.4-.6.6-1 .7-.1-.1-.1-.1-.2-.1z"/><path class="st4" d="M86.5 31.6c-.4 0-.7-.1-1-.4-.5-.5-.5-1.4 0-1.9l4.1-4.1c.5-.5 1.4-.5 1.9 0s.5 1.4 0 1.9l-4.1 4.1c-.2.3-.6.4-.9.4zm4.3 4.3c-.4 0-.7-.1-1-.4-.5-.5-.5-1.4 0-1.9l4.1-4.1c.5-.5 1.4-.5 1.9 0s.5 1.4 0 1.9l-4.1 4.1c-.2.3-.6.4-.9.4z"/><path class="st1" d="M14.4 49.1c-.4 0-.7-.1-1-.4-1.4-1.4-1.4-3.8 0-5.2l1.6-1.6c.5-.5 1.3-.5 1.9-.1l3.8 3.2c.6.5.7 1.4.2 1.9-.5.6-1.4.7-1.9.2l-2.8-2.4-.8.8c-.4.4-.4 1 0 1.3.5.5.5 1.4 0 1.9-.3.3-.6.4-1 .4z"/><path class="st6" d="M78.2 104.9l-1.6 1.6c-.9.9-2.4.9-3.3 0l1.7-5.4 3.2 3.8z"/><path class="st1" d="M74.9 108.6c-.9 0-1.9-.4-2.6-1.1-.5-.5-.5-1.4 0-1.9s1.4-.5 1.9 0c.4.4 1 .4 1.3 0l.8-.8-2.4-2.8c-.5-.6-.4-1.4.2-1.9.6-.5 1.4-.4 1.9.2l3.2 3.8c.5.5.4 1.4-.1 1.9l-1.6 1.6c-.7.7-1.7 1-2.6 1z"/><path class="st1" d="M78.2 106.3c-.4 0-.8-.2-1.1-.5l-3.2-3.8c-.4-.4-.4-1.1-.1-1.6 0 0 .2-.3.5-.9.1-.1.1-.2.2-.4 0 0 0-.1.1-.1.1-.2.2-.4.3-.7.1-.1.1-.3.2-.4l.6-1.2.1-.2c.1-.1.1-.2.2-.3 1.3-2.9 2.4-5.7 3.1-8.2.1-.3.2-.5.2-.8.1-.5.3-.9.4-1.4.1-.2.1-.4.1-.6.1-.3.1-.5.2-.8l-18.8 18.8c-.5.5-1.2.5-1.8.1-1.9-1.3-3.9-2.6-5.7-3.9-2.6-1.9-5.3-4-7.8-6.1-2.9-2.5-5.8-5.1-8.5-7.7l-1-1-1-1c-2.7-2.7-5.3-5.6-7.7-8.5-2.1-2.5-4.1-5.1-6.1-7.8-1.3-1.8-2.7-3.8-4-5.8-.4-.5-.3-1.3.2-1.7L36.6 41c-7.5 1.5-16 6.2-16.1 6.2-.5.3-1.1.2-1.6-.2l-3.8-3.2c-.3-.3-.5-.7-.5-1.1 0-.4.2-.8.5-1.1 7.5-5.7 15.9-10.4 25-13.9 1.7-.7 3.5-1.3 5.2-1.8.3-.1.5-.2.8-.2 2.7-.9 5.4-1.6 8.1-2.2 1-.2 10.1-2.2 16.4-.7.7.2 1.1.8 1 1.5-.8 7 1.5 13.8 6.4 18.7 4.9 4.9 11.6 7.2 18.5 6.4.7-.1 1.3.4 1.5 1 1.2 5.3.1 13-.6 16.3-.5 2.4-1.2 4.7-1.9 7.1-.2.6-.4 1.2-.6 1.7-.8 2.4-1.7 4.8-2.6 7.1-3.4 8.3-7.8 16.1-13.1 23-.2.5-.6.7-1 .7zm-1.6-5.3l1.5 1.7c4.7-6.4 8.6-13.5 11.7-21 .9-2.3 1.8-4.6 2.6-7 .2-.6.4-1.1.5-1.7.7-2.3 1.3-4.6 1.8-6.9.8-3.3 1.5-9.5.9-13.9-7.3.5-14.3-2.1-19.5-7.3-5.2-5.2-7.8-12.3-7.3-19.6-4.6-.7-10.8.2-13.9.9-2.6.6-5.2 1.3-7.8 2.1-.2.1-.5.2-.7.2-1.7.5-3.4 1.1-5 1.8-8.3 3.2-16 7.4-22.9 12.5l1.7 1.5c2.9-1.5 12.8-6.4 20.3-6.5.5 0 1.1.3 1.3.8.2.5.1 1.1-.3 1.5L20.6 60.9c1.1 1.6 2.2 3.2 3.3 4.7 1.9 2.6 3.9 5.2 6 7.6 2.4 2.9 5 5.7 7.6 8.4.3.3.6.7 1 1l1 1c2.7 2.6 5.5 5.2 8.4 7.6 2.5 2.1 5 4.1 7.6 6 1.5 1.1 3.1 2.2 4.7 3.3l20.7-20.7c.4-.4 1-.5 1.5-.3s.8.7.8 1.3c0 1.5-.2 3.2-.7 5.1-.1.2-.1.4-.2.6-.1.5-.2.9-.4 1.5-.1.3-.2.6-.2.8-.8 2.6-1.9 5.5-3.3 8.5-.1.1-.1.2-.2.4l-.1.2c-.2.5-.4.9-.6 1.3-.1.2-.2.3-.2.5-.1.2-.2.5-.3.7 0 .1-.1.2-.1.2-.1.1-.1.3-.2.4 0-.1 0-.1-.1 0z"/><path class="st1" d="M35.6 112.6c-.4 0-.7-.1-1-.4l-4.3-4.3c-.3-.3-.4-.7-.4-1.1.1-.4.3-.8.7-1 0 0 1.4-.8 3.3-2.3 1.3-.9 2.5-1.9 3.7-2.9 1.2-1.1 2.3-2.1 3.4-3.2 1.1-1.2 2.1-2.3 3-3.5.6-.8 1.2-1.6 1.7-2.4L48 93c-.5.8-1.2 1.7-1.8 2.6-1 1.2-2.1 2.5-3.2 3.7-1.1 1.1-2.3 2.2-3.6 3.4-1.2 1.1-2.5 2.1-3.8 3.1-.8.6-1.5 1.1-2.1 1.5l2.5 2.5c1-.4 2.1-.8 3.2-1.3 1.3-.7 2.7-1.5 4.2-2.4 1.3-.8 2.6-1.8 3.8-2.8l3.6-3c1.3-1.2 2.3-2.2 2.9-2.9l2 1.9c-.7.7-1.7 1.8-3.1 3-1.2 1.1-2.5 2.2-3.7 3.2-1.3 1-2.7 2-4 2.9-1.5 1-3 1.8-4.4 2.5-1.5.7-2.9 1.3-4.3 1.7-.4-.1-.5 0-.6 0zM12.5 95c-.4 0-.7-.1-1-.4L1.4 84.5c-.4-.5-.5-1.2-.2-1.7s.9-.8 1.5-.6l7.4 1.9-.7 2.7-2.5-.7 5.1 5.1.8-2 2.5 1-1.6 3.9c-.2.4-.6.7-1 .8 0 .1-.1.1-.2.1z"/><path class="st1" d="M37.5 120c-.4 0-.7-.1-1-.4l-10.1-10.1c-.3-.3-.5-.8-.4-1.2.1-.5.4-.8.8-1l3.9-1.6 1 2.5-2 .8 5.1 5.1-.7-2.5 2.7-.7 1.9 7.4c.2.6-.1 1.2-.6 1.5-.1.1-.4.2-.6.2zM25.3 76.9l-6.5-6.5.9-.9 1-1 6.5 6.5-1.9 1.9zm25.3 25.2l-6.5-6.4 2-2 6.4 6.5zM21.7 80l-5.9-5.9 1.9-2 6 6zm22.9 22.3c-.4 0-.7-.1-1-.4L41 99.3c-.5-.5-.5-1.4 0-1.9.5-.6 1.4-.6 1.9-.1l2.7 2.7c.5.5.5 1.4 0 1.9-.3.3-.6.4-1 .4zM19.4 83.9c-.4 0-.7-.1-1-.4l-3.1-3.1c-.5-.5-.5-1.4 0-1.9s1.4-.5 1.9 0l3.1 3.1c.5.5.5 1.4 0 1.9-.1.3-.5.4-.9.4zM43 108.1l-5.5-5.5 1-1 .9-.9 5.5 5.5-1.9 1.9z"/><path transform="rotate(-45.001 13.96 83.787)" class="st1" d="M12.6 80.3h2.8v7h-2.8z"/><path transform="rotate(-44.992 37.209 107.037)" class="st1" d="M35.8 103.5h2.7v7h-2.7z"/><path class="st1" d="M45.6 35.4c-.4 0-.7-.1-1-.4l-4.8-4.8 1.9-1.9 3.9 3.9 2-2-2-2 1.9-1.9 3 3c.3.3.4.6.4 1s-.1.7-.4 1L46.6 35c-.3.2-.7.4-1 .4zm45 48.1c-.8-.3-1.5-.8-2.1-1.4-2.4-2.4-2.4-6.2 0-8.5 1.6-1.6 4-2.2 6.2-1.5l-.9 2.6c-1.2-.4-2.5-.1-3.4.8-1.3 1.3-1.3 3.4 0 4.6.3.3.7.6 1.2.7l-1 2.7z"/><path class="st2" d="M63.9 63.5c-.2 0-.4-.1-.5-.2-.3-.3-.3-.7 0-1l4.5-4.5c.3-.3.7-.3 1 0 .3.3.3.7 0 1l-4.5 4.5c-.2.2-.3.2-.5.2z"/><path class="st1" d="M81.8 82c-.4 0-.7-.1-1-.4L78.3 79c-.5-.5-.5-1.4 0-1.9s1.4-.5 1.9 0l2.6 2.6c.5.5.5 1.4 0 1.9-.3.3-.7.4-1 .4zm-5.4-5.4c-.4 0-.7-.1-1-.4l-4.9-4.9c-.5-.5-.5-1.4 0-1.9s1.4-.5 1.9 0l4.9 4.9c.5.5.5 1.4 0 1.9-.2.2-.6.4-.9.4zM50.3 50.5c-.4 0-.7-.1-1-.4l-9.9-9.9c-.5-.5-.5-1.4 0-1.9s1.4-.5 1.9 0l9.9 9.9c.5.5.5 1.4 0 1.9-.2.3-.6.4-.9.4z"/><path class="st9" d="M76.8 58.4L63.9 71.3 49.7 57.1l12.9-12.9 14.2 14.2z"/><path class="st10" d="M70.5 60.1L65.6 65c-.9.9-2.4.9-3.3 0L56 58.8c-.9-.9-.9-2.4 0-3.3l4.9-4.9c.9-.9 2.4-.9 3.3 0l6.2 6.2c1 .8 1 2.3.1 3.3z"/><path class="st6" d="M68.7 59.5L65 63.2c-.7.7-1.8.7-2.5 0l-4.6-4.6c-.7-.7-.7-1.8 0-2.5l3.7-3.7c.7-.7 1.8-.7 2.5 0l4.6 4.6c.7.7.7 1.8 0 2.5z"/><path class="st1" d="M63.9 72.7c-.4 0-.7-.1-1-.4L48.7 58.1c-.5-.5-.5-1.4 0-1.9l7-7c.5-.5 1.4-.5 1.9 0s.5 1.4 0 1.9l-6 6 12.3 12.3 11-11-12.3-12.3-1.8 1.8c-.5.5-1.4.5-1.9 0s-.5-1.4 0-1.9l2.7-2.7c.5-.5 1.4-.5 1.9 0l14.2 14.2c.5.5.5 1.4 0 1.9L64.9 72.3c-.3.3-.7.4-1 .4z"/><path class="st1" d="M63.8 65.5c-.8 0-1.7-.3-2.3-1l-5-5c-.6-.6-1-1.4-1-2.3 0-.9.3-1.7 1-2.3l4-4c1.3-1.3 3.4-1.3 4.7 0l5 5c1.3 1.3 1.3 3.4 0 4.7l-4 4c-.7.6-1.6.9-2.4.9zm-1.1-12.8c-.1 0-.3.1-.4.2l-4 4c-.1.1-.2.3-.2.4 0 .1 0 .2.2.4l5 5c.2.2.6.2.8 0l4-4c.2-.2.2-.6 0-.8l-5-5c-.1-.1-.2-.2-.4-.2zm.4-14.4c-.1 0-.1 0 0 0-.9-.1-1.4-.7-1.4-1.5l.9-13.2c.1-.8.7-1.3 1.5-1.3s1.3.7 1.3 1.5L64.5 37c-.1.7-.7 1.3-1.4 1.3zm-.5 7.2s-.1 0 0 0c-.8-.1-1.4-.7-1.4-1.5l.1-1.9c0-.8.7-1.3 1.5-1.3s1.3.7 1.3 1.5l-.1 1.9c-.1.8-.7 1.3-1.4 1.3zM18.8 62.1c-.7 0-1.3-.5-1.4-1.2-.1-.8.4-1.4 1.2-1.5l19.6-2.3c.8-.1 1.4.4 1.5 1.2.1.8-.5 1.4-1.2 1.5L19 62.1h-.2zm25.2-3c-.7 0-1.3-.5-1.4-1.2-.1-.8.4-1.4 1.2-1.5l5.6-.7c.8-.1 1.4.4 1.5 1.2.1.8-.4 1.4-1.2 1.5l-5.6.7H44zm32.8.7c-.7 0-1.3-.6-1.4-1.3-.1-.8.5-1.4 1.3-1.5l12-.8c.8 0 1.4.5 1.5 1.3.1.8-.5 1.4-1.3 1.5l-12.1.8c.1 0 .1 0 0 0zm16.5-1.1c-.7 0-1.3-.6-1.4-1.3 0-.8.5-1.4 1.3-1.5l3.9-.3c.8 0 1.4.5 1.5 1.3 0 .8-.5 1.4-1.3 1.5l-4 .3c.1 0 0 0 0 0zm-33.1 44.9H60c-.8-.1-1.3-.8-1.2-1.5l1.2-10c.1-.8.8-1.3 1.5-1.2.8.1 1.3.8 1.2 1.5l-1.2 10c0 .6-.6 1.2-1.3 1.2zM62 88.5h-.2c-.8-.1-1.3-.8-1.2-1.5l1.9-15.8c.1-.8.8-1.3 1.5-1.2.8.1 1.3.8 1.2 1.5l-1.9 15.8c0 .7-.6 1.2-1.3 1.2z"/><path class="st11" d="M111.3 84.6c-.8 0-1.4-.6-1.4-1.4v-5.9c0-.8.6-1.4 1.4-1.4.8 0 1.4.6 1.4 1.4v5.9c0 .8-.7 1.4-1.4 1.4z"/><path class="st11" d="M114.2 81.6h-5.9c-.8 0-1.4-.6-1.4-1.4 0-.8.6-1.4 1.4-1.4h5.9c.8 0 1.4.6 1.4 1.4 0 .8-.6 1.4-1.4 1.4zm-78.8-73c-.8 0-1.4-.6-1.4-1.3V1.4c0-.8.6-1.4 1.4-1.4.8 0 1.4.6 1.4 1.4v5.9c0 .7-.6 1.3-1.4 1.3z"/><path class="st11" d="M38.3 5.7h-5.9c-.8 0-1.4-.6-1.4-1.4 0-.8.6-1.4 1.4-1.4h5.9c.8 0 1.4.6 1.4 1.4 0 .8-.6 1.4-1.4 1.4z"/><path class="st12" d="M0 0h120v120H0z"/></svg>