<svg id="Слой_1" xmlns="http://www.w3.org/2000/svg" viewBox="0 0 120 120"><style>.st0{fill:#f25a7e}.st1{opacity:.25;enable-background:new}.st2{fill:#e6e4ed}.st3{fill:#5e5491}.st4{fill:#453966}.st5{fill:#1c1628}.st6{fill:#fff}.st7{fill:none}</style><path class="st0" d="M90 106.9v8.6H13.8v-8.6h66.9zM60.5 50.2c15.1 15.1 33.7 21 41.9 13.3-9.7 9.5-22.9 13.2-35.1 11-5-.9-9.7-2.7-14.1-5.6-2.2-1.4-4.3-3.1-6.3-5.1-1.4-1.4-2.7-2.9-3.9-4.5-11.1-15.2-9.7-36.9 4.2-51-7.7 8.2-1.8 26.8 13.3 41.9z"/><path class="st1" d="M97.4 67.6c-9 6.4-20 8.7-30.3 6.9-5-.9-9.7-2.7-14.1-5.6-2.2-1.4-4.3-3.1-6.3-5.1-1.4-1.4-2.7-2.9-3.9-4.5-9.9-13.6-9.8-32.2.1-46.1-3.2 12.8-.8 26.6 7.2 37.5 1.3 1.8 2.8 3.6 4.5 5.2 2.2 2.2 4.7 4.2 7.2 5.9 5 3.3 10.6 5.4 16.3 6.4 6.5 1.2 13 1 19.3-.6z"/><path class="st2" d="M89.5 21.2c15.2 15.2 21.1 34.1 13 42.1l-.2.2c-8.2 7.7-26.8 1.8-41.9-13.3-15.1-15.1-21-33.7-13.3-41.9.1-.1.1-.2.2-.2 8.1-8 27-2.2 42.2 13.1zm-7.1 16.7c2.7-2.7 2.7-7 0-9.7-2.7-2.7-7-2.7-9.7 0-2.7 2.7-2.7 7 0 9.7 2.7 2.7 7.1 2.7 9.7 0z"/><path class="st1" d="M89.5 21.2C74.3 5.9 55.4.1 47.4 8.1l-.2.2c-2.2 2.3-3.3 5.6-3.4 9.3 9.3-.2 21.8 5.9 32.6 16.6C87.1 45 93.2 57.6 93 66.9c3.8-.1 7-1.2 9.3-3.4.1-.1.2-.1.2-.2 8.1-8.1 2.2-26.9-13-42.1z"/><path class="st3" d="M80.7 106.9H53.1v-38c4.3 2.8 9.1 4.7 14.1 5.6l5.5 13.3 8 19.1z"/><path class="st4" d="M53.1 68.9v38h-30L43 59.3c1.2 1.6 2.4 3.1 3.9 4.5 1.9 2 4 3.7 6.2 5.1z"/><path class="st0" d="M82.4 28.2c2.7 2.7 2.7 7 0 9.7-2.7 2.7-7 2.7-9.7 0-2.7-2.7-2.7-7 0-9.7 2.7-2.6 7.1-2.6 9.7 0z"/><path class="st5" d="M92.6 68.4c-9.7 0-22.3-6.2-33.2-17.1-15.8-15.8-21.6-35.1-13.3-44 .6-.6 1.5-.6 2.1-.1.6.6.6 1.5.1 2.1-3.3 3.5-3.9 9.5-1.6 16.8 2.4 7.7 7.7 15.8 14.8 22.9 7.1 7.1 15.3 12.4 22.9 14.8 7.3 2.3 13.3 1.8 16.8-1.6.6-.6 1.6-.5 2.1.1.6.6.5 1.6-.1 2.1-2.6 2.8-6.3 4-10.6 4z"/><path class="st5" d="M102.6 64.8c-.4 0-.8-.1-1.1-.4-.6-.6-.6-1.5 0-2.1 3.5-3.5 4.1-9.4 1.8-16.8-2.4-7.7-7.7-15.9-14.9-23.1C81.3 15 73 9.8 65.3 7.4 57.9 5.1 52 5.7 48.5 9.2c-.6.6-1.5.6-2.1 0-.6-.6-.6-1.5 0-2.1 4.3-4.3 11.4-5.2 19.9-2.6 8.2 2.5 16.8 8.1 24.4 15.6 7.5 7.5 13.1 16.2 15.6 24.4 2.6 8.5 1.7 15.6-2.6 19.9-.4.2-.8.4-1.1.4z"/><path class="st4" d="M72.7 87.8c-1.9-.1-3.7-.3-5.5-.6-5-.9-9.7-2.7-14.1-5.6V68.9c4.3 2.8 9.1 4.7 14.1 5.6l5.5 13.3z"/><path class="st5" d="M74.2 76.6c-2.4 0-4.8-.2-7.2-.6-5.3-.9-10.2-2.9-14.6-5.8-2.3-1.5-4.5-3.3-6.5-5.3-1.5-1.5-2.8-3-4-4.7-5.6-7.7-8.3-17.3-7.6-26.9.8-9.7 5-19 11.9-26 .1-.1.2-.2.2-.3.6-.6 1.5-.6 2.1 0 .6.6.6 1.5 0 2.1l-.2.2C41.9 15.8 38 24.4 37.2 33.4c-.7 8.9 1.8 17.8 7 24.9 1.1 1.5 2.4 3 3.7 4.3 1.8 1.8 3.9 3.5 6 4.9 4.1 2.7 8.7 4.5 13.5 5.3 12.2 2.2 24.9-1.7 33.8-10.6l.2-.2c.6-.6 1.5-.6 2.1 0 .6.6.6 1.5 0 2.1l-.3.3c-7.7 7.9-18.3 12.2-29 12.2z"/><path class="st5" d="M77.6 41.4c-2.1 0-4.3-.8-5.9-2.4-3.3-3.3-3.3-8.6 0-11.8 3.3-3.3 8.6-3.3 11.8 0 3.3 3.3 3.3 8.6 0 11.8-1.6 1.6-3.8 2.4-5.9 2.4zm0-13.7c-1.4 0-2.7.5-3.8 1.6-2.1 2.1-2.1 5.5 0 7.5 2.1 2.1 5.5 2.1 7.6 0 2.1-2.1 2.1-5.5 0-7.5-1.1-1-2.4-1.6-3.8-1.6z"/><path class="st6" d="M79.7 36.7c-.4 0-.8-.1-1.1-.4-.6-.6-.6-1.5 0-2.1.3-.3.4-.6.4-1s-.1-.7-.4-1c-.3-.3-.6-.4-1-.4-.8 0-1.5-.7-1.5-1.5s.7-1.5 1.5-1.5c1.2 0 2.3.5 3.1 1.3.8.8 1.3 2 1.3 3.1 0 1.2-.5 2.3-1.3 3.1-.3.2-.7.4-1 .4z"/><path class="st5" d="M23.1 108.4c-.2 0-.4 0-.6-.1-.8-.3-1.1-1.2-.8-2l19.8-47.5c.3-.8 1.2-1.1 2-.8.8.3 1.1 1.2.8 2l-19.8 47.5c-.2.5-.8.9-1.4.9zm57.6 0c-.6 0-1.2-.3-1.4-.9L65.8 75.1c-.3-.8 0-1.7.8-2 .8-.3 1.7 0 2 .8l13.5 32.4c.3.8 0 1.7-.8 2-.2.1-.4.1-.6.1zm-27.6 0c-.8 0-1.5-.7-1.5-1.5v-38c0-.8.7-1.5 1.5-1.5s1.5.7 1.5 1.5v38c0 .8-.7 1.5-1.5 1.5z"/><path class="st5" d="M90 117H13.8c-.8 0-1.5-.7-1.5-1.5v-8.6c0-.8.7-1.5 1.5-1.5H90c.8 0 1.5.7 1.5 1.5v8.6c0 .8-.7 1.5-1.5 1.5zm-74.7-3h73.2v-5.6H15.3v5.6zm45.6-62.7c-.4 0-.8-.1-1.1-.4-.6-.6-.6-1.5 0-2.1L71.6 37c.6-.6 1.5-.6 2.1 0 .6.6.6 1.5 0 2.1L62 50.8c-.3.3-.7.5-1.1.5zm-14.5-20c-.8 0-1.5-.6-1.5-1.4 0-.8.6-1.5 1.4-1.6l26.3-1.6c.8-.1 1.5.6 1.6 1.4.1.8-.6 1.5-1.4 1.6l-26.4 1.6c.1 0 .1 0 0 0zm34.5 34.5c-.1 0-.1 0 0 0-.9-.1-1.6-.8-1.5-1.6L81 37.9c0-.8.8-1.5 1.6-1.4.8.1 1.5.8 1.4 1.6l-1.6 26.3c-.1.7-.8 1.4-1.5 1.4z"/><path class="st0" d="M62.1 106.9H90v8.6H62.1z"/><path class="st0" d="M62.1 106.9H90v8.6H62.1z"/><path class="st5" d="M90 117H62.1c-.8 0-1.5-.7-1.5-1.5v-8.6c0-.8.7-1.5 1.5-1.5H90c.8 0 1.5.7 1.5 1.5v8.6c0 .8-.7 1.5-1.5 1.5zm-26.4-3h24.9v-5.6H63.6v5.6z"/><path class="st6" d="M86.5 112c-.4 0-.8-.2-1.1-.4l-.2-.2c-.1-.1-.1-.2-.1-.3 0-.1-.1-.2-.1-.3v-.6c0-.1 0-.2.1-.3 0-.1.1-.2.1-.3.1-.1.1-.2.2-.2.4-.4.9-.5 1.4-.4.1 0 .2 0 .3.1.1 0 .2.1.3.1.1.1.2.1.2.2l.2.2c.1.1.1.2.1.3 0 .1.1.2.1.3v.6c0 .1 0 .2-.1.3 0 .1-.1.2-.1.3-.1.1-.1.2-.2.2l-.2.2c-.1.1-.2.1-.3.1-.1 0-.2.1-.3.1h-.3zM70.4 94.9c-.6 0-1.2-.4-1.4-.9l-.9-2c-.3-.8 0-1.7.8-2 .8-.3 1.7 0 2 .8l.9 2c.3.8 0 1.7-.8 2-.2.1-.4.1-.6.1zm3.5 8.4c-.6 0-1.2-.3-1.4-.9l-1.7-4.2c-.3-.8 0-1.7.8-2 .8-.3 1.7 0 2 .8l1.7 4.2c.3.8 0 1.7-.8 2-.2.1-.4.1-.6.1z"/><path class="st7" d="M0 0h120v120H0z"/></svg>