<svg xmlns="http://www.w3.org/2000/svg" viewBox="0 0 22.2 19.2"><path d="M1.2 18C.4 17.2 0 16.2 0 15.1v-4.2C0 6.3 2 2.8 5.9.4c.3-.3.7-.4 1.2-.4.6 0 1.1.2 1.5.6.4.5.6 1 .6 1.6 0 .8-.4 1.4-1.1 1.8-1.2.7-2.1 1.5-2.7 2.5-.6 1-.9 2.4-.9 4.2h.3c1.1 0 2.1.4 2.8 1.2s1.2 1.7 1.2 2.8v.4c0 1.1-.4 2.1-1.2 2.8s-1.7 1.2-2.8 1.2H4c-1.1.1-2-.3-2.8-1.1zm13 0c-.8-.8-1.2-1.7-1.2-2.8V11c0-4.6 2-8.1 5.9-10.5.4-.4.8-.5 1.3-.5.6 0 1.1.2 1.5.6.4.4.6.9.6 1.5 0 .8-.4 1.4-1.1 1.8-1.2.7-2.1 1.6-2.7 2.5s-.9 2.4-.9 4.2h.3c1.1 0 2.1.4 2.8 1.2s1.2 1.7 1.2 2.8v.4c0 1.1-.4 2.1-1.2 2.8S19 19 17.9 19h-.7c-1.2.2-2.2-.2-3-1z" fill="#f46c93"/></svg>