<svg xmlns="http://www.w3.org/2000/svg" viewBox="0 0 400 400"><path fill="#1d1629" d="M0 0h400v400H0z"/><g fill="#21213d"><ellipse transform="rotate(-19.126 392.011 76.701)" cx="392" cy="76.7" rx="1.5" ry="1.5"/><path d="M387 2.7c.8-.3 1.2-1.1.9-1.9-.1-.4-.4-.7-.7-.8h-1.4c-.7.3-1 1.1-.7 1.8.2.8 1.1 1.2 1.9.9zm-21.2 107.4c.8-.3 1.2-1.1.9-1.9-.2-.7-1-1.1-1.7-1h-.2c-.8.3-1.2 1.1-.9 1.9.2.5.6.9 1.1 1 .3.1.5.1.8 0z"/><circle cx="394" cy="179.2" r="1.5"/><circle cx="375.3" cy="156.1" r="1.5"/><circle cx="375.3" cy="256.7" r="1.5"/><path d="M386 399.9c-.1 0-.1.1-.2.1h1.4c-.4-.2-.8-.2-1.2-.1zm-11.5-181.5c-3.1-2.1-7.3-1.2-9.4 1.9 0 .1-.1.2-.1.2-1.4 2.2-1.3 4.9 0 7.1.5.8 1.2 1.5 2 2.1 1.2.8 2.5 1.1 3.7 1.1 2.2 0 4.3-1.1 5.7-3 2.1-3.1 1.2-7.3-1.9-9.4zm.4 8.4c-1.5 2.3-4.6 2.9-6.9 1.4s-2.9-4.6-1.4-6.9c1-1.4 2.5-2.2 4.2-2.2.9 0 1.9.3 2.7.8 2.3 1.6 2.9 4.7 1.4 6.9zm7.8-20.6c-.4-.3-1-.2-1.2.3l-5.7 8.5c-.3.4-.2 1 .3 1.2.2.1.3.2.5.2.3 0 .6-.1.8-.4l5.7-8.5c.1-.5 0-1.1-.4-1.3zm5.4-8.2c-.4-.3-1-.2-1.2.3l-3 4.5c-.3.4-.2 1 .3 1.2.2.1.3.2.5.2.3 0 .6-.1.8-.4l3-4.5c.1-.4 0-1-.4-1.3zm-18.5 15.7c-.3.4-.2 1 .3 1.2.2.1.3.2.5.2.3 0 .6-.1.8-.4l3.9-5.8c.3-.4.2-1-.3-1.2-.4-.3-1-.2-1.2.3l-4 5.7zm6-7.5c.2.1.3.2.5.2.3 0 .6-.1.8-.4l2.8-4.2c.3-.4.2-1-.3-1.2-.4-.3-1-.2-1.2.3l-2.8 4.2c-.3.2-.2.8.2 1.1zm4.5 15.4c.3 0 .6-.1.8-.4l2.6-4c.3-.4.2-1-.3-1.2-.4-.3-1-.2-1.2.3l-2.6 4c-.3.4-.2 1 .3 1.2.1 0 .2.1.4.1zm5.8-11.3l-1.9 2.9c-.3.4-.2 1 .3 1.2.2.1.3.2.5.2.3 0 .6-.1.8-.4l1.9-2.9c.3-.4.2-1-.3-1.2-.4-.3-1-.2-1.3.2zM383 366.5c-1.3 0-2.4 1.1-2.4 2.4 0 .3.1.6.2.8l-10.2 9.1c-.4-.3-1-.4-1.5-.4-1.6 0-3 1.3-3 3s1.3 3 3 3c1.6 0 3-1.3 3-3 0-.4-.1-.8-.3-1.2l10.2-9.1c.3.2.7.3 1.1.3 1.3 0 2.4-1.1 2.4-2.4 0-1.4-1.1-2.5-2.5-2.5zm-14 16.1c-.6 0-1.2-.5-1.2-1.2s.5-1.2 1.2-1.2c.6 0 1.2.5 1.2 1.2s-.5 1.2-1.2 1.2zm14-13c-.4 0-.6-.3-.6-.6s.3-.6.6-.6.6.3.6.6-.2.6-.6.6zm4.6-67.4c-1.2 0-2.2.7-2.6 1.8l-20-.7-5.7-.2c-.4-1-1.3-1.8-2.5-1.8h-.2l-4.8-15c1-.7 1.7-1.8 1.7-3.1 0-2-1.6-3.7-3.7-3.7-1.1 0-2 .5-2.7 1.2l-11-6.4c0-.2.1-.4.1-.6 0-1.6-1.3-2.9-2.9-2.9s-2.9 1.3-2.9 2.9 1.3 2.9 2.9 2.9c.8 0 1.4-.3 2-.8l11 6.4c-.1.3-.1.6-.1.9 0 2 1.6 3.7 3.7 3.7h.3L355 302c-.5.5-.8 1.1-.8 1.9 0 1 .6 1.9 1.4 2.3v19.1c-1.3.5-2.2 1.7-2.2 3.2 0 1.9 1.5 3.4 3.4 3.4 1.6 0 2.9-1.1 3.3-2.5h19c.4.8 1.2 1.4 2.2 1.4 1.3 0 2.3-1 2.3-2.3 0-.7-.3-1.4-.8-1.8l5-18.9c1.4-.1 2.6-1.3 2.6-2.8 0-1.6-1.3-2.8-2.8-2.8zm-54.3-27.3c-.6 0-1.1-.5-1.1-1.1s.5-1.1 1.1-1.1 1.1.5 1.1 1.1-.4 1.1-1.1 1.1zm16.5 10.2c-1 0-1.9-.8-1.9-1.9s.8-1.9 1.9-1.9c1 0 1.9.8 1.9 1.9s-.8 1.9-1.9 1.9zm7 18c.5 0 .8.4.8.8s-.4.8-.8.8c-.5 0-.8-.4-.8-.8s.4-.8.8-.8zm0 27c-.9 0-1.6-.7-1.6-1.6s.7-1.6 1.6-1.6 1.6.7 1.6 1.6-.7 1.6-1.6 1.6zm24.5-1.1c-.3 0-.5-.2-.5-.5s.2-.5.5-.5.5.2.5.5-.2.5-.5.5zm-.2-2.8c-.9.1-1.6.6-1.9 1.4h-19.1c-.3-1.3-1.4-2.2-2.7-2.4v-18.7c.9-.2 1.6-.8 1.9-1.6l5.7.2 19.9.7c.2.7.6 1.3 1.2 1.6l-5 18.8zm6.5-20.2c-.6 0-1-.5-1-1s.5-1 1-1c.6 0 1 .5 1 1s-.5 1-1 1zm-42-248c4.4 5.3 10.6 8.6 17.5 9.3.6.1 1.3.1 1.9.1h.6c10.2 0 19.3-5.9 23.5-15.3l.3-.6c1-2.4 1.7-5 1.9-7.6.1-1.2.1-2.3.1-3.4v-.8c-.8-12.6-10.7-22.9-23.4-24-1-.1-2-.1-2.9-.1-5.2.1-10.3 1.8-14.5 4.8l-.3.2c-.7.5-1.3 1-2 1.6-1.3 1.1-2.4 2.4-3.4 3.7-.5.7-1 1.4-1.4 2.1l-.7 1.1c-1.5 2.7-2.4 5.6-2.8 8.7l-.2.8h.1v.3c-.8 7.1 1.3 13.8 5.7 19.1zm19.4 7.6c-.6 0-1.2 0-1.7-.1-6.4-.6-12.2-3.6-16.3-8.6h1.5c6.7.3 12.2 1.7 16.5 3.2 3.3 1.2 5.8 2.5 7.4 3.5.4.2.7.4.9.6-2.6 1-5.4 1.5-8.3 1.4zm10.4-2.1c-1.2-.9-4.8-3.3-10.4-5.3-4.9-1.7-11.4-3.2-19.4-3.1-1.4-2.1-2.5-4.4-3.2-6.8.9 0 1.7 0 2.6.1 7.2.4 14.1 1.7 20 3.3 6.7 1.8 12.1 4 15.3 5.5l2.4 1.2c-2.1 2.2-4.6 3.9-7.3 5.1zm14.1-19.7c-.2 2.2-.7 4.4-1.5 6.5-12.3-1.5-18.2-4.7-18.1-6.2.1-1.4 5.3-2.9 13.6-2.9 1.9 0 3.9.1 6.1.2 0 .8 0 1.6-.1 2.4zM365 17.4h.5c.8 0 1.5 0 2.3.1 6.1.6 11.5 3.4 15.4 7.6h.1c-4.2.4-11.5-.7-18.2-6.4-.4-.4-.9-.8-1.3-1.2l-.1-.1h1.3zm-14.1 4.9c6.4 1.1 9 3 8.9 3.8-.1 1-4.8 2.7-13.2 1.9-.4 0-.7-.1-1-.1 1.5-2.1 3.2-4 5.3-5.6zm-6.3 7.3c.6.1 1.2.2 1.9.2 1.5.1 2.9.2 4.3.2 5.7 0 10.6-1.1 10.8-3.7.2-2.5-4-4.4-8.7-5.4 2.6-1.6 5.4-2.6 8.3-3.1 1.2 1.3 2.4 2.4 3.7 3.3 6 4.6 12.4 5.9 16.8 5.9 1.1 0 2-.1 2.8-.2 1.2 1.6 2.2 3.2 3 5.1-3.6-.3-10.5-.1-19.4 3.2l-1.5.6c-.6.2-1.1.4-1.7.6-8.3 2.8-17.4 2-21.9 1.4-.5-.1-.9-.1-1.3-.2.5-2.9 1.5-5.5 2.9-7.9zm7 10.5c4.1 0 8.8-.5 13.4-1.9.8-.3 1.6-.5 2.3-.8 10-4 17.7-3.9 21-3.6.6 1.9 1 3.8 1.2 5.9-10.2-.8-21 .2-21.4 4.3-.4 3.9 9.4 6.8 19.1 8-.9 1.9-2 3.6-3.3 5.1-2.7-1.5-9.8-4.7-18.9-7.2-6.9-1.8-14.9-3.3-23.1-3.4-.5-2.4-.6-4.8-.4-7.3v-.1c2.1.4 5.7 1 10.1 1zM224.4 51.5c1.4 0 2.7-.1 4.1-.4 11.3-2.3 18.7-13.3 16.4-24.6-1.1-5.5-4.3-10.2-8.9-13.3-4.6-3.1-10.2-4.2-15.7-3.1S210.1 14.4 207 19s-4.2 10.2-3.1 15.7c2 10 10.7 16.8 20.5 16.8zm-18.7-17.2c1.2-.1 2 .1 2.8.3.7.2 1.5.4 2.6.4.6 0 1.2-.1 1.9-.2 2.2-.4 3.2-1.2 4.1-1.9.9-.7 1.6-1.2 3.4-1.6 1.8-.4 2.7-.1 3.7.2 1.1.3 2.4.6 4.5.2 2.2-.4 3.2-1.2 4.1-1.9.9-.7 1.6-1.2 3.4-1.6s2.7-.1 3.7.2c.9.3 2 .5 3.5.4.2 1.8.1 3.7-.2 5.4-.5-.1-.9-.2-1.4-.3-1.1-.3-2.4-.6-4.5-.2-2.2.4-3.2 1.2-4.1 1.9-.9.7-1.6 1.2-3.4 1.6-1.8.4-2.7.1-3.7-.2-1.1-.3-2.4-.6-4.5-.2-2.2.4-3.2 1.2-4.1 1.9-.9.7-1.6 1.2-3.4 1.6-1.8.3-2.7.1-3.7-.2-.8-.2-1.6-.4-2.8-.4-.9-1.6-1.5-3.4-1.9-5.4 0 .1 0 0 0 0zm22.4 15.1c-3.5.7-7 .4-10.2-.8.9-.4 1.5-.9 2-1.3.9-.7 1.6-1.2 3.4-1.6 1.8-.3 2.7-.1 3.7.2 1.1.3 2.4.6 4.5.2 2.2-.4 3.2-1.2 4.1-1.9.9-.7 1.6-1.2 3.4-1.6h.3c-2.7 3.3-6.6 5.8-11.2 6.8zm12.6-8.8c-.6 0-1.3 0-2 .2-2.2.4-3.2 1.2-4.1 1.9-.9.7-1.6 1.2-3.4 1.6-1.8.4-2.7.1-3.7-.2-1.1-.3-2.4-.6-4.5-.2-2.2.4-3.2 1.2-4.1 1.9-.9.7-1.6 1.2-3.3 1.6h-.1c-2.6-1.4-4.9-3.4-6.7-5.9l1.2.3c.7.2 1.5.4 2.6.4.6 0 1.2-.1 1.9-.2 2.2-.4 3.2-1.2 4.1-1.9.9-.7 1.6-1.2 3.3-1.6 1.8-.4 2.7-.1 3.7.2 1.1.3 2.4.6 4.5.2 2.2-.4 3.2-1.2 4.1-1.9.9-.7 1.6-1.2 3.4-1.6s2.7-.1 3.7.2c.4.1.9.2 1.5.3-.5 1.6-1.2 3.2-2.1 4.7zm2.4-13.7c-1.2.1-2-.1-2.8-.3-1.1-.3-2.4-.6-4.5-.2-2.2.4-3.2 1.2-4.1 1.9-.9.7-1.6 1.2-3.4 1.6-1.8.4-2.7.1-3.7-.2-1.1-.3-2.4-.6-4.5-.2-2.2.4-3.2 1.2-4.1 1.9-.9.7-1.6 1.2-3.4 1.6-1.8.4-2.7.1-3.7-.2-.9-.3-2-.5-3.6-.4-.2-1.8-.1-3.6.2-5.4.5.1 1 .2 1.4.3.7.2 1.5.4 2.6.4.6 0 1.2-.1 1.9-.2 2.2-.4 3.2-1.2 4.1-1.9.9-.7 1.6-1.2 3.4-1.6 1.8-.4 2.7-.1 3.7.2 1.1.3 2.4.6 4.5.2 2.2-.4 3.2-1.2 4.1-1.9.9-.7 1.6-1.2 3.4-1.6 1.8-.4 2.7-.1 3.7.2.8.2 1.6.4 2.8.4 1 1.7 1.7 3.5 2 5.4zm-22.4-15c1.3-.3 2.5-.4 3.8-.4 2.2 0 4.4.4 6.4 1.1-.9.4-1.5.9-2.1 1.3-.9.7-1.6 1.2-3.3 1.6-1.8.4-2.7.1-3.7-.2-1.1-.3-2.4-.6-4.5-.2-2.2.4-3.2 1.2-4.1 1.9-.9.7-1.6 1.2-3.4 1.6h-.3c2.8-3.4 6.7-5.8 11.2-6.7zm-12.6 8.8s.1 0 0 0c.7 0 1.3-.1 2-.2 2.2-.4 3.2-1.2 4.1-1.9.9-.7 1.6-1.2 3.4-1.6 1.8-.4 2.7-.1 3.7.2 1.1.3 2.4.6 4.5.2 2.2-.4 3.2-1.2 4.1-1.9.9-.7 1.6-1.2 3.4-1.6h.1c.6.3 1.1.6 1.6 1 2 1.3 3.7 3 5.1 5l-1.2-.3c-1.1-.3-2.4-.6-4.5-.2s-3.2 1.2-4.1 1.9c-.9.7-1.6 1.2-3.4 1.6-1.8.4-2.7.1-3.7-.2-1.1-.3-2.4-.6-4.5-.2-2.2.4-3.2 1.2-4.1 1.9-.9.7-1.6 1.2-3.4 1.6-1.8.3-2.7.1-3.7-.2-.4-.1-.9-.2-1.5-.3.5-1.7 1.2-3.3 2.1-4.8zM50.2 92.9c1 .6 2 1.1 3.1 1.4 1.6.5 3.3.8 4.9.8h.4c5.3-.1 10.4-2.9 13.3-7.8 2.2-3.7 2.8-7.9 1.7-12-.5-1.9-1.3-3.7-2.4-5.2V70c-1.3-1.8-2.9-3.3-4.8-4.5-3.6-2.1-7.8-2.7-11.9-1.8h-.1c-4.1 1.1-7.6 3.7-9.7 7.3-4.6 7.6-2.1 17.4 5.5 21.9zM46.1 72c1.5-2.6 3.8-4.6 6.6-5.8L50.4 70c-.3.4-.1 1 .3 1.2.1.1.3.1.5.1.3 0 .6-.2.8-.4l3.3-5.6c1-.2 2-.3 3-.3h.3L52 76.2c-.3.4-.1 1 .3 1.2.1.1.3.1.5.1.3 0 .6-.2.8-.4l7-11.9c1.7.3 3.3.9 4.9 1.8 1.6.9 2.9 2.1 4 3.5l-3.2 5.3c-.3.4-.1 1 .3 1.2.1.1.3.1.5.1.3 0 .6-.2.8-.4l2.7-4.6c.6 1.1 1.1 2.2 1.4 3.4.9 3.6.4 7.4-1.5 10.7-2.3 3.8-6.1 6.2-10.2 6.8l4.6-7.8c.3-.4.1-1-.3-1.2-.4-.3-1-.1-1.2.3l-5.4 9c-1 0-2.1-.1-3.1-.4L62.5 80c.3-.4.1-1-.3-1.2-.4-.3-1-.1-1.2.3l-7.8 13.2c-.7-.3-1.4-.6-2-1-.2-.1-.5-.3-.7-.5l3.9-6.6c.3-.4.1-1-.3-1.2-.4-.3-1-.1-1.2.3l-3.8 6.4c-5.1-4.4-6.5-11.8-3-17.7zm253.1 41c.2.1.5.1.7.1 1.2 0 2.4-.8 2.7-2.1.2-.7.1-1.5-.3-2.1l-.1-.1 6.9-9.4c.1 0 .3.1.4.1.3.1.6.1.9.1 1.6 0 3.1-1.1 3.6-2.8.2-1 .1-1.9-.4-2.8-.5-.8-1.3-1.4-2.3-1.7l.2-13c.3-.1.5-.2.8-.3.8-.5 1.3-1.2 1.5-2 .2-.9.1-1.7-.4-2.5s-1.2-1.3-2-1.5c-.9-.2-1.7-.1-2.5.4s-1.3 1.2-1.5 2c-.4 1.7.6 3.5 2.3 4l-.2 13c-1.3.3-2.3 1.3-2.6 2.6-.3 1.2 0 2.4.8 3.3l-6.9 9.3c-.1 0-.1 0-.2-.1-.7-.2-1.5-.1-2.1.3s-1.1 1-1.3 1.7c-.4 1.6.5 3.2 2 3.5zm9.9-37.1c.1-.4.3-.7.7-.9.2-.1.5-.2.8-.2h.4c.8.2 1.3 1 1.1 1.8-.1.4-.3.7-.7.9-.3.2-.8.3-1.1.2-.9-.2-1.4-1-1.2-1.8zm-.5 19.6c.2-1 1.3-1.6 2.3-1.4.5.1.9.4 1.1.9s.3.9.2 1.4a2 2 0 0 1-2.3 1.4c-1-.3-1.6-1.3-1.3-2.3zm-9.7 14.6c.1-.3.2-.5.4-.6.2-.1.3-.1.5-.1h.2c.3.1.5.2.6.4.1.2.2.5.1.7-.1.3-.2.5-.4.6s-.5.2-.7.1c-.3-.1-.5-.2-.6-.4-.1-.2-.2-.5-.1-.7z"/><ellipse transform="rotate(-19.126 287.707 50.197)" cx="287.7" cy="50.2" rx="1.5" ry="1.5"/><ellipse transform="rotate(-19.126 317.015 35.306)" cx="317" cy="35.3" rx="1.5" ry="1.5"/><ellipse transform="rotate(-19.126 333.024 95.995)" cx="333" cy="96" rx="1.5" ry="1.5"/><ellipse transform="rotate(-19.126 302.308 9.185)" cx="302.3" cy="9.2" rx="1.5" ry="1.5"/><ellipse transform="rotate(-19.126 109.194 64.299)" cx="109.2" cy="64.3" rx="1.5" ry="1.5"/><ellipse transform="rotate(-19.126 120.288 97.792)" cx="120.3" cy="97.8" rx="1.5" ry="1.5"/><ellipse transform="rotate(-19.126 47.801 117.694)" cx="47.8" cy="117.7" rx="1.5" ry="1.5"/><ellipse transform="rotate(-19.126 161.515 109.482)" cx="161.5" cy="109.5" rx="1.5" ry="1.5"/><ellipse transform="rotate(-19.126 20.7 58.205)" cx="20.7" cy="58.2" rx="1.5" ry="1.5"/><ellipse transform="rotate(-19.126 20.691 30.606)" cx="20.7" cy="30.6" rx="1.5" ry="1.5"/><ellipse transform="rotate(-19.126 13.215 106.504)" cx="13.2" cy="106.5" rx="1.5" ry="1.5"/><ellipse transform="rotate(-19.126 256.216 26.085)" cx="256.2" cy="26.1" rx="1.5" ry="1.5"/><ellipse transform="rotate(-19.126 183.014 70.807)" cx="183" cy="70.8" rx="1.5" ry="1.5"/><ellipse transform="rotate(-47.521 153.414 3.436)" cx="153.4" cy="3.4" rx="1.5" ry="1.5"/><ellipse transform="rotate(-47.521 123.265 14.3)" cx="123.3" cy="14.3" rx="1.5" ry="1.5"/><ellipse transform="rotate(-47.521 169.605 35.277)" cx="169.6" cy="35.3" rx="1.5" ry="1.5"/><ellipse transform="rotate(-47.521 230.406 69.276)" cx="230.4" cy="69.3" rx="1.5" ry="1.5"/><ellipse transform="rotate(-47.521 139.114 78.89)" cx="139.1" cy="78.9" rx="1.5" ry="1.5"/><ellipse transform="translate(-.005 .11)" cx="76.7" cy="3.4" rx="1.5" ry="1.5"/><ellipse transform="rotate(-40.23 359.298 81.802)" cx="359.3" cy="81.8" rx="2.5" ry="2.5"/><ellipse transform="rotate(-40.23 88.907 103.512)" cx="88.9" cy="103.5" rx="2.5" ry="2.5"/><ellipse transform="rotate(-40.23 33.19 3.381)" cx="33.2" cy="3.4" rx="2.5" ry="2.5"/><path d="M160 63.6c2.9 0 5.3-2.4 5.3-5.3S162.9 53 160 53s-5.3 2.4-5.3 5.3 2.4 5.3 5.3 5.3zm0-8.9c2 0 3.5 1.6 3.5 3.5 0 2-1.6 3.5-3.5 3.5-2 0-3.5-1.6-3.5-3.5s1.6-3.5 3.5-3.5zM65.1 34.3c.5.4 1.2.7 1.9.7h.3c.7-.1 1.3-.4 1.7-.8l7.6 3.5c0 .3-.1.6 0 .8.1.8.5 1.6 1.2 2.1.6.5 1.3.7 2 .7h.3c.8-.1 1.6-.5 2.1-1.2s.8-1.5.7-2.3v-.1l10.6-6.4.3.3c.5.4 1.1.6 1.7.6h.3c.4 0 .7-.1 1-.3l9.1 9.7c-1 1.5-.8 3.5.6 4.7.6.5 1.4.8 2.2.8 1 0 2-.4 2.7-1.3.6-.7.8-1.6.8-2.5-.1-.9-.5-1.7-1.3-2.3s-1.6-.8-2.5-.8c-.4 0-.7.2-1.1.3L98 30.6c.2-.4.2-.8.2-1.3-.1-.7-.4-1.3-1-1.8s-1.2-.7-2-.6c-.7.1-1.3.4-1.8 1-.4.5-.6 1.1-.6 1.8l-10.7 6.4-.4-.4c-1.3-1.1-3.2-.9-4.3.3l-7.5-3.5c.1-.3.1-.6 0-.9-.1-.8-.5-1.5-1.1-2-1.3-1-3.2-.8-4.2.4-.9 1.4-.7 3.3.5 4.3zm42.3 8.3c.3-.3.7-.6 1.1-.6.4-.1.9.1 1.2.4.3.3.6.7.6 1.1s-.1.9-.4 1.2c-.6.7-1.6.8-2.3.2-.7-.6-.8-1.6-.2-2.3zM94.8 29.1c.1-.2.4-.3.6-.3h.1c.2 0 .4.1.5.2.2.1.3.4.3.6s0 .5-.2.6c-.1.2-.4.3-.6.3s-.5 0-.6-.2c-.2-.1-.3-.4-.3-.6 0-.2.1-.4.2-.6zm-16.1 8.2c.3-.3.7-.5 1.1-.5.3 0 .6.1.9.3s.5.6.5.9c0 .4-.1.7-.3 1-.2.3-.6.5-.9.5-.4 0-.7-.1-1-.3-.3-.2-.5-.6-.5-.9s0-.7.2-1zm-12.6-6c.4-.5 1.1-.6 1.7-.2.2.2.4.5.4.8s-.1.6-.3.9-.5.4-.8.4-.6-.1-.9-.3c-.4-.4-.5-1.1-.1-1.6zM25.2 181.9c.2 0 .4 0 .6-.1.5-.3.9-.8.9-1.4 0-.2 0-.4-.1-.6-.3-.8-1.2-1.1-2-.7-.6.3-.9.8-.9 1.4 0 .2 0 .4.1.6.3.5.9.8 1.4.8zm64.4-3c-.8-.3-1.6 0-2 .7-.1.2-.1.4-.1.6 0 .6.3 1.1.9 1.4.2.1.4.1.6.1.6 0 1.1-.3 1.4-.9.1-.2.1-.4.1-.6 0-.5-.4-1.1-.9-1.3zm-32.5 20.4c-.9 0-1.6.7-1.6 1.5s.7 1.5 1.5 1.5h.2c.8 0 1.5-.7 1.5-1.5s-.7-1.5-1.6-1.5c.1 0 0 0 0 0zm34.4-27.1h.2c.7 0 1.4-.6 1.5-1.3v-.2c0-.7-.5-1.4-1.3-1.5s-1.6.5-1.7 1.3v.2c0 .8.6 1.4 1.3 1.5zm-33-41.4c0-.8-.7-1.5-1.5-1.5s-1.5.7-1.5 1.5.7 1.5 1.5 1.5 1.5-.6 1.5-1.5zm-20.4 7.1c.3 0 .6-.1.8-.2.5-.3.7-.8.7-1.3 0-.3-.1-.6-.2-.8-.5-.7-1.4-.9-2.1-.4-.4.3-.7.8-.7 1.3 0 .3.1.5.2.8.3.4.8.6 1.3.6zm-15.9 31.5c-.7.1-1.3.7-1.3 1.5v.2c.1.8.8 1.3 1.5 1.3h.2c.7-.1 1.3-.7 1.3-1.5v-.2c-.1-.9-.9-1.5-1.7-1.3zm2.4-16.7c.2.1.4.1.6.1.6 0 1.1-.3 1.4-.9.1-.2.1-.4.1-.6 0-.6-.3-1.1-.9-1.4-.8-.3-1.6 0-2 .7-.1.2-.1.4-.1.6 0 .7.3 1.2.9 1.5zm-3.7 8v.2c0 .7.5 1.4 1.3 1.5h.2c.7 0 1.4-.5 1.5-1.3v-.2c0-.7-.5-1.4-1.3-1.5-.8-.1-1.6.5-1.7 1.3zm61.5 27c-.2.3-.4.6-.4 1s.2.8.5 1.1c.3.2.6.4 1 .4s.8-.2 1.1-.5c.3-.3.4-.6.4-1s-.2-.8-.5-1.1c-.6-.6-1.5-.6-2.1.1zm-36.8-55.4c0 .1 0 .3.1.4.2.6.8 1.1 1.4 1.1.1 0 .3 0 .4-.1.7-.2 1.1-.8 1.1-1.4 0-.1 0-.3-.1-.4-.2-.8-1.1-1.3-1.9-1-.5.1-1 .7-1 1.4zm46.1 29.9h.2c.7-.1 1.3-.8 1.3-1.5v-.2c-.1-.8-.9-1.4-1.7-1.3-.7.1-1.3.7-1.3 1.5v.2c.1.8.8 1.3 1.5 1.3zm-2.8-9.5c.2 0 .4 0 .6-.1.6-.3.9-.8.9-1.4 0-.2-.1-.4-.1-.6-.4-.8-1.2-1.1-2-.7-.6.3-.9.8-.9 1.4 0 .2 0 .4.1.6.3.5.8.8 1.4.8zm-20.3 46.7c0-.1 0-.3-.1-.5-.2-.8-1.1-1.2-1.9-1-.7.2-1.1.8-1.1 1.5 0 .1 0 .3.1.4.2.6.8 1.1 1.4 1.1.1 0 .3 0 .4-.1.7-.2 1.1-.8 1.2-1.4zm-38.9-11.8c-.3.3-.5.7-.5 1.1 0 .4.1.7.4 1s.7.5 1.1.5.7-.1 1-.4c.4-.3.5-.7.5-1.1 0-.3-.1-.7-.4-1-.6-.6-1.5-.6-2.1-.1zm10 7.7c0-.5-.2-1-.7-1.3-.7-.5-1.6-.3-2.1.4-.2.3-.2.5-.2.8 0 .5.3 1 .7 1.3.3.2.5.2.8.2.5 0 1-.2 1.3-.7.1-.2.2-.4.2-.7zm-9.1-50.8c.4 0 .8-.2 1.1-.5.3-.3.4-.6.4-1s-.2-.8-.5-1.1c-.6-.5-1.6-.5-2.1.2-.2.3-.4.6-.4 1s.2.8.5 1.1c.3.1.6.3 1 .3zM45.8 199c0 .1-.1.3-.1.4 0 .7.4 1.3 1.1 1.5.1 0 .3.1.4.1.6 0 1.2-.4 1.4-1.1.1-.1.1-.3.1-.4 0-.7-.4-1.3-1.1-1.5-.8-.3-1.6.2-1.8 1zm30.1-61.2c.5 0 1-.2 1.3-.7.2-.3.2-.5.2-.8 0-.5-.3-1-.7-1.3-.7-.5-1.6-.2-2.1.5-.2.3-.2.5-.2.8 0 .5.3 1 .7 1.3.3.2.5.2.8.2zm8.5 6.2c.3-.3.5-.7.5-1.1 0-.3-.1-.7-.4-1-.5-.6-1.5-.7-2.1-.1-.4.3-.5.7-.5 1.1 0 .4.1.7.4 1s.7.5 1.1.5.7-.2 1-.4zm-17.6-10.3c.7 0 1.3-.4 1.4-1.1 0-.1.1-.3.1-.4 0-.7-.4-1.3-1.1-1.4-.8-.2-1.6.2-1.9 1 0 .1-.1.3-.1.4 0 .6.4 1.3 1.1 1.5h.5zm8.5 60.2c-.4.3-.7.8-.7 1.3 0 .3.1.6.2.8.3.4.8.7 1.3.7.3 0 .6-.1.8-.2.4-.3.7-.8.7-1.3 0-.3-.1-.6-.2-.8-.5-.7-1.4-.9-2.1-.5zm-18.2-54c-14.3 0-25.9 11.6-25.9 25.9s11.6 25.9 25.9 25.9S83 180.1 83 165.8s-11.7-25.9-25.9-25.9zm0 50c-13.3 0-24.1-10.8-24.1-24.1s10.8-24.1 24.1-24.1 24.1 10.8 24.1 24.1-10.8 24.1-24.1 24.1zm255.8-42.4v.8c0 10.1 8.3 18.4 18.4 18.4 5.2 0 9.9-2.2 13.2-5.7l.2-.2c3.1-3.3 5-7.7 5-12.5 0-8.9-6.3-16.3-14.8-18-1.2-.2-2.4-.4-3.6-.4-9.8 0-17.8 7.7-18.3 17.4-.1.1-.1.2-.1.2zm1.8.8v-.6c1.1-2.1 3-5.1 4-5.6 1.3-.7 4.2-.9 5-.5-.1.2-.3.5-.5.7-.6.7-1.2 1.5-.9 2.4.4 1.1 1.8 1.4 3.1 1.6.5.1 1.4.3 1.7.5-.2.4-.9 1.1-1.3 1.4-.4.3-.7.6-.9.9-.2.3-.5.6-.8.9-1 1-2.2 2.2-2.3 3.5-.2 1.2.5 3.6 1.5 4.6.6.6 1.8 1 3 1.3.6.2 1.8.5 2.2.8-.3.1-.7.2-1.1.3-1.2.3-2.6.6-2.7 1.8 0 .5.2 1 .7 1.5-6.3-2.4-10.7-8.4-10.7-15.5zm20.4-16.1c7.3 1.7 12.8 8.3 12.8 16.2 0 2.5-.6 4.8-1.5 6.9 0-.5-.1-.9-.3-1.3-.5-.8-1.6-.8-2.5-.8h-1c-.1-.4.1-1.3.2-1.9.3-1.4.6-2.8-.3-3.7-.9-.8-2.3-.6-3.9-.4-.8.1-2.2.3-2.4.1 0-.3.6-1.3 1-1.9.6-.9 1.2-1.8 1.3-2.6.1-1-1-2-3.1-3.9-.9-.8-2.3-2-2.5-2.5-.1-.9 1.2-2.9 2.2-4.2zm-3.8-.5c.6 0 1.2 0 1.8.1-.9 1.3-2.1 3.3-2.2 4.7-.1 1 1 2 3.1 3.9.8.8 2.2 2 2.5 2.5-.1.4-.6 1.1-.9 1.6-.9 1.3-1.8 2.6-1.1 3.8.7 1.2 2.5 1 4.2.8.8-.1 2.2-.3 2.5-.1.1.3-.1 1.4-.2 2-.3 1.3-.6 2.6.1 3.5.6.7 1.5.7 2.4.6h1c.2.6-.4 2.8-1.3 4.7-3 3.1-7.2 5.1-11.8 5.1-2.2-.7-4.4-1.8-4.9-2.4.3-.1.8-.2 1.2-.3 1.2-.3 2.7-.6 2.7-1.9 0-1.6-2-2.2-3.7-2.7-.9-.2-1.9-.5-2.2-.8-.5-.5-1.1-2.3-1-3.1.1-.7 1.1-1.7 1.8-2.5.4-.4.7-.7.9-1 .1-.2.4-.4.7-.7 1-.9 2.2-2 1.9-3.2-.3-1.2-1.7-1.5-3.1-1.8-.5-.1-1.3-.3-1.7-.4.1-.2.4-.5.5-.7.6-.7 1.4-1.7.8-2.6-1.3-2.1-6.1-1-7.5-.3-.7.4-1.5 1.2-2.2 2.2 2.4-6.4 8.5-11 15.7-11zm-3.5 218.6c4-3 5.7-5.7 5-7.9-1.1-3.2-6.6-3.6-11.3-3.3-2.9-3.6-7-6.4-11.9-7.4-8.8-1.9-17.5 2-22.1 9.1-4.7.2-10.2 1.1-10.9 4.4-.5 2.3 1.5 4.8 5.8 7.3-3.3 2.4-6.2 5.4-5.3 8.1.7 2.2 3.8 3.4 8.9 3.4h2c3 4.4 7.5 7.4 12.7 8.5 1.5.3 3 .5 4.5.5 7.6 0 14.6-4.2 18.3-10.8h.3c6.1-.3 9.6-1.9 10.2-4.4.5-2.8-2.7-5.5-6.2-7.5zm3.3-7.3c.4 1.1-.8 3.4-5.1 6.4-.1 0-.2-.1-.2-.1-.4-3-1.5-5.9-3.1-8.4 5.5-.2 8 .9 8.4 2.1zm-7.4 13.2c-.3 1.5-.9 2.9-1.5 4.3-3.8.1-8.3-.3-13.1-1 5.7-2 10.9-4.3 15.1-6.8-.1 1.1-.2 2.3-.5 3.5zM305.1 333c1.4 0 2.7.1 4.1.4 8.4 1.8 14.3 9 14.9 17.1-4.5 2.8-10.5 5.5-17 7.6-.6.2-1.1.4-1.7.5-.6-.1-1.1-.2-1.7-.4-6.8-1.5-13-3.6-17.7-5.9 0-1.5.1-3 .4-4.5 2-8.7 9.9-14.8 18.7-14.8zm-3.3 26.8c-4.7 1.3-9.1 2-13 2.3-1.4-2.3-2.3-4.9-2.7-7.6 4.4 2.1 9.8 3.9 15.7 5.3zm-23.5-14.2c.3-1.2 2.6-2.6 8.1-2.9-.8 1.5-1.4 3.2-1.8 4.9-.3 1.2-.4 2.5-.5 3.7-.1 0-.1.1-.2.1-4.4-2.5-5.8-4.6-5.6-5.8zm.5 14.5c-.4-1.2.9-3.5 5.3-6.6 0 0 .1 0 .1.1.2 3 1.1 5.9 2.6 8.6-5.3.2-7.7-1-8-2.1zm22.2 10.6c-4.4-1-8.2-3.4-11-6.9 4.6-.4 10-1.6 15.5-3.2 5.6 1.1 11 1.7 15.5 1.7h.2c-4.2 6.6-12.1 10.2-20.2 8.4zm31.1-13.3c-.3 1.2-2.5 2.5-7.8 2.9.5-1.2.9-2.5 1.2-3.8.4-1.7.5-3.4.5-5 0 0 .1-.1.2-.1 4.7 2.6 6.2 4.8 5.9 6zm-176.9-198c1.8 0 3.3-1.5 3.3-3.3L177 151c.6 1.1 1.8 1.8 3.1 1.8l2.7 17.3c-.9.5-1.5 1.4-1.5 2.4 0 1.5 1.2 2.8 2.8 2.8s2.8-1.2 2.8-2.8c0-1.4-1-2.5-2.3-2.7l-2.8-17.5c1.2-.6 2-1.8 2-3.2 0-2-1.6-3.7-3.7-3.7s-3.7 1.6-3.7 3.7v.1l-18.5 5.1c-.6-.9-1.6-1.5-2.8-1.5-1.8 0-3.3 1.5-3.3 3.3.1 1.8 1.5 3.3 3.4 3.3zm29.8 13.1c0 .5-.4 1-1 1s-1-.4-1-1 .4-1 1-1 1 .5 1 1zm-4.9-25.3c1 0 1.9.8 1.9 1.9s-.8 1.9-1.9 1.9c-1 0-1.9-.8-1.9-1.9s.9-1.9 1.9-1.9zm-24.9 7.4c.8 0 1.5.7 1.5 1.5s-.7 1.5-1.5 1.5-1.5-.7-1.5-1.5.6-1.5 1.5-1.5zM114 280.8c-.8-.6-1.7-.9-2.7-.8s-1.8.6-2.5 1.3l-11.7-5.6c.2-1.1-.2-2.3-1.2-3.1-1.4-1.1-3.5-.9-4.7.5-.6.7-.8 1.6-.7 2.4.1.9.5 1.7 1.2 2.2.6.5 1.3.7 2.1.7h.4c.8-.1 1.6-.5 2.2-1.1l11.7 5.6c-.1.3-.1.7-.1 1.1.1 1 .6 1.8 1.3 2.5.3.3.7.4 1 .6l-1.5 8.5c-.7.1-1.3.4-1.7 1-1 1.2-.8 2.9.4 3.9.5.4 1.1.6 1.7.6.8 0 1.6-.4 2.2-1 .5-.6.7-1.3.6-2s-.4-1.4-1-1.9c-.1-.1-.3-.2-.4-.3l1.5-8.6c.9-.1 1.7-.6 2.4-1.3 1.3-1.6 1.1-3.9-.5-5.2zm-19-4.6c-.5.6-1.5.8-2.1.2-.3-.3-.5-.6-.6-1 0-.4.1-.8.3-1.1.3-.4.7-.6 1.2-.6.3 0 .7.1.9.3.8.6.9 1.5.3 2.2zm15.1 22.7c-.3.4-1 .5-1.4.1-.2-.2-.3-.4-.4-.7 0-.3 0-.5.2-.7s.4-.3.7-.4h.1c.2 0 .4.1.6.2.2.2.3.4.4.7 0 .4-.1.6-.2.8zm3-14.1c-.6.8-1.8.9-2.6.3-.4-.3-.6-.8-.7-1.3s.1-1 .4-1.4.8-.6 1.3-.7h.2c.4 0 .8.1 1.2.4.8.8.9 1.9.2 2.7zm163.7-41c-.1-.2-.2-.3-.3-.4l-1.1-.8-.5-1.4 1.5-.6h.1l2.6-1.5.8 2c.2.6.8 1.1 1.4 1.3.3.1.6.1.9.1s.5 0 .8-.1l.2.7-.3 1.3v.5c.3.7 1 1.2 1.8 1.2.3 0 .5 0 .8-.1l5.2-2c1.1-.4 1.6-1.5 1.3-2.5-.1-.2-.2-.3-.3-.4l-1.1-.8-.2-.7c1.2-.6 1.9-1.9 1.4-3.1l-1.6-4.2 1.8-1.1.1-.1c1.1-.7 1.6-2 1.2-3l-1.5-4.1c-1.1-2.8-3.4-3.6-6.3-4.2l-10-26.5c-1-2.5-2.6-5.2-4.5-7.1-2.2-2.3-4.3-3.2-6-2.6-1.6.6-2.5 2.6-2.7 5.6l-.6-1.5c-2-5.3-6.2-8.7-8.5-10.2-3.5-2.3-7-3.4-9-2.6-4 1.5-7.8 12.6-4.5 21.1l.6 1.5c-2.1-2.1-4.1-3-5.7-2.4-3.6 1.4-3.2 9.3-1.4 14.2l10 26.5c-1.8 2.3-3 4.4-1.9 7.3l1.5 4.1c.4.9 1.3 1.5 2.4 1.5h.6l2.1-.4 1.6 4.2c.2.6.8 1.1 1.4 1.3.3.1.6.1.9.1.3 0 .5 0 .8-.1l.2.7-.3 1.3v.5c.2.5.6.9 1.1 1 .2.1.4.1.7.1s.5-.1.8-.1l5.2-2c.5-.2.9-.5 1.1-.9.3-.5.3-1 .1-1.5-.1-.2-.2-.3-.3-.4l-1.1-.8-.2-.7c1.2-.6 1.9-1.9 1.4-3.1l-.8-2 2.9-.5h.2l1.5-.6.5 1.4-.3 1.3v.5c.2.5.6.9 1.1 1 .2.1.4.1.7.1.3 0 .5-.1.8-.1l7.7-2.9c1-.3 1.5-1.4 1.2-2.3zm13.2-1.6l-5.2 2h-.1l.3-1v-.5l-.3-.9 2-.7 2-.7.3.9c.1.2.2.3.3.4l.7.5zm-.1-5c.1.3-.1.7-.7.9l-6.7 2.5c-.3.1-.5.1-.8 0-.1 0-.3-.1-.3-.3l-.9-2.3 7.9-4.7 1.5 3.9zm0-12.5l1.5 4.1c.1.3-.1.7-.4.9l-.1.1-14.5 8.7-9.4-24.9c6.1 6.2 12 7.2 16.4 7.9 3.7.5 5.6 1 6.5 3.2zm-26-35c.1-2.3.7-3.9 1.6-4.3.1-.1.3-.1.4-.1.9 0 2.2.8 3.6 2.2 1.7 1.7 3.2 4.2 4.1 6.5l9.7 25.5c-3.2-.5-7.1-1.3-11.3-4.2l-6.9-18.1c-.8-2.2-1.3-5.1-1.2-7.5zm-19.1-13.1c.2-.1.5-.1.8-.1 1.4 0 3.8.8 6.5 2.6 3.6 2.4 6.4 5.8 7.8 9.4l9.4 24.7c-1.4-1.2-2.7-2.7-4.1-4.6l-1-2.7c-2.4-6.3-8.5-12.6-12.5-11.1s-4.4 10.3-2 16.6l1 2.7c.2 2.3.1 4.3 0 6.1l-3.3-8.8-6-15.9c-3.3-8.4.8-17.9 3.4-18.9zm-10.1 32.2c-1.8-4.8-1.6-11.1.3-11.9.1-.1.3-.1.4-.1.9 0 2.2.8 3.6 2.2 1.7 1.7 3.2 4.2 4.1 6.5l6.9 18.1c-1.2 4.9-3.6 8.1-5.6 10.6l-9.7-25.4zm24.8 44.9l-5.2 2h-.1l.3-1v-.5l-.3-.9 3.9-1.5.3.9c.1.2.2.3.3.4l.8.6c.1 0 .1 0 0 0zm0-5c.1.3-.1.7-.7.9l-6.7 2.5c-.3.1-.5.1-.8 0-.1 0-.3-.1-.3-.3l-1.5-3.8 9-1.7 1 2.4zm-14.2-1.7c-.4.1-.8-.1-.9-.4l-1.5-4.1c-.9-2.3.3-3.9 2.7-6.8 2.8-3.5 6.6-8.1 7.1-16.8l9.4 24.9-16.8 3.2zm18.4-3.6l-1-2.6-10.3-27.3-1.1-2.8c-2.3-6.2-1.4-13.4.9-14.3.2-.1.4-.1.6-.1 2.6 0 7.4 4.5 9.5 10.2l1.1 2.8 11.3 29.9-11 4.2zm11.2 1.1l-7.7 2.9h-.1l.3-1v-.5l-.6-1.6 6.4-2.4.6 1.6c.1.2.2.3.3.4l.8.6z"/><path d="M258.5 202.5c-1-.4-2.4-.4-3.8.1s-2.5 1.4-3 2.4c-.2.4 0 1 .4 1.2.1.1.3.1.4.1.3 0 .7-.2.8-.5.2-.3.5-.8 1.2-1.1.2-.1.5-.3.8-.4.3-.1.6-.2.8-.2.7-.1 1.3-.1 1.7.1.5.2 1 0 1.2-.5.1-.4-.1-1-.5-1.2zm17.7 58.1c.2 0 .5-.1.7-.3.2-.2 4.2-4.5 2.3-9.3-.2-.4-.6-1.7-2.1-2.2-1.2-.4-2.8-.3-4.8.5-2.1.8-3.4 1.7-4 2.8-.7 1.3-.2 2.6-.1 3.1 1.8 4.7 7.7 5.4 8 5.4zm-6.3-6.1c-.3-.7-.3-1.1 0-1.6.4-.7 1.4-1.4 3-2 1.1-.4 2.1-.6 2.8-.6.3 0 .6 0 .8.1.5.2.8.5 1 1.2 1.2 3.1-.9 6.1-1.7 7.1-1.2-.2-4.7-1.1-5.9-4.2zm23.7-7c-.1-.3-.5-1.3-1.6-1.7-.9-.3-2.1-.2-3.5.4-1.5.6-2.4 1.2-2.9 2.1-.6 1-.2 2-.1 2.3 1.3 3.5 5.5 3.9 5.7 3.9h.1c.2 0 .5-.1.7-.3.1-.1 2.9-3.2 1.6-6.7zm-2.7 5.1c-.9-.2-3-.8-3.8-2.7-.2-.4-.1-.7 0-.8.1-.2.6-.7 2-1.3.9-.3 1.5-.4 1.8-.4.2 0 .4 0 .5.1.2.1.4.2.5.7.8 1.8-.4 3.7-1 4.4zm-29.3 4.7c-.9-.3-2.1-.2-3.5.4-2.7 1-3.7 2.5-3 4.4 1.3 3.5 5.5 3.9 5.7 3.9h.1c.2 0 .5-.1.7-.3.1-.1 3-3.3 1.7-6.7-.2-.3-.6-1.3-1.7-1.7zm-1.1 6.9c-.9-.2-3-.8-3.8-2.7-.2-.5-.5-1.2 1.9-2.1 1.4-.5 2-.5 2.3-.4.2.1.4.2.5.7.9 1.8-.3 3.7-.9 4.5zM43 251.6c0-.5-.4-.9-.9-.9h-2.2c-.5 0-.9.4-.9.9s.4.9.9.9h2.2c.5 0 .9-.4.9-.9zm3.6 8.7h-3.4c-.5 0-.9.4-.9.9s.4.9.9.9h3.4c.5 0 .9-.4.9-.9s-.4-.9-.9-.9z"/><path d="M21.7 270c3.1 5.4 8.9 9.1 15.6 9.1s12.5-3.7 15.6-9.1c0-.1.1-.1.1-.2 1.4-2.6 2.3-5.6 2.3-8.7 0-3.7-1.1-7.1-3-9.9 0-.1-.1-.2-.2-.3-3.2-4.7-8.6-7.7-14.7-7.7s-11.5 3.1-14.7 7.7c-.1.1-.1.2-.2.3-1.9 2.8-3 6.3-3 9.9 0 3.2.8 6.1 2.3 8.7-.2.2-.2.2-.1.2zm18.2-9.7H21.2c.2-2.9 1.1-5.5 2.5-7.8h11.8c.5 0 .9-.4.9-.9s-.4-.9-.9-.9H25c3-3.5 7.4-5.7 12.3-5.7s9.3 2.2 12.3 5.7h-3.8c-.5 0-.9.4-.9.9s.4.9.9.9H51c1.6 2.5 2.6 5.5 2.6 8.7 0 2.7-.7 5.2-1.9 7.5H36.5c-.5 0-.9.4-.9.9s.4.9.9.9h14c-2.9 4.2-7.8 6.9-13.2 6.9s-10.3-2.7-13.2-6.9h6.6c.5 0 .9-.4.9-.9s-.4-.9-.9-.9H23c-1-2-1.7-4.2-1.8-6.6h18.7c.5 0 .9-.4.9-.9s-.4-.9-.9-.9z"/><path d="M42.1 256.6c0 .5.4.9.9.9h7.2c.5 0 .9-.4.9-.9s-.4-.9-.9-.9H43c-.5 0-.9.4-.9.9zm-10.4 16.7c0 .5.4.9.9.9h5.3c.5 0 .9-.4.9-.9s-.4-.9-.9-.9h-5.3c-.5 0-.9.4-.9.9zm-2.1-17.9h-4c-.5 0-.9.4-.9.9s.4.9.9.9h4c.5 0 .9-.4.9-.9s-.4-.9-.9-.9z"/><circle cx="180.1" cy="314.9" r="1.5"/><circle cx="145.4" cy="239.7" r="1.5"/><circle cx="191.8" cy="230.9" r="1.5"/><circle cx="222.3" cy="255.1" r="1.5"/><circle cx="226.9" cy="288" r="1.5"/><circle cx="146.3" cy="288.8" r="1.5"/><circle cx="179.4" cy="260.4" r="1.5"/><circle cx="40.5" cy="230.9" r="1.5"/><circle cx="92.1" cy="224.6" r="1.5"/><circle cx="5.3" cy="216.7" r="1.5"/><circle cx="2.3" cy="143.4" r="1.5"/><circle cx="86.8" cy="264.9" r="1.5"/><circle cx="6.1" cy="265.8" r="1.5"/><ellipse transform="rotate(-19.126 294.025 382.704)" cx="294" cy="382.7" rx="1.5" ry="1.5"/><ellipse transform="rotate(-19.126 349.827 359.301)" cx="349.8" cy="359.3" rx="1.5" ry="1.5"/><ellipse transform="rotate(-19.126 343.625 396.286)" cx="343.6" cy="396.3" rx="1.5" ry="1.5"/><ellipse transform="rotate(-19.126 5.826 366.505)" cx="5.8" cy="366.5" rx="1.5" ry="1.5"/><ellipse transform="rotate(-47.521 209.19 205.489)" cx="209.2" cy="205.5" rx="1.5" ry="1.5"/><ellipse transform="rotate(-47.521 134.869 170.64)" cx="134.9" cy="170.6" rx="1.5" ry="1.5"/><ellipse transform="rotate(-47.521 234.169 162.899)" cx="234.2" cy="162.9" rx="1.5" ry="1.5"/><ellipse transform="rotate(-47.521 198.296 139.808)" cx="198.3" cy="139.8" rx="1.5" ry="1.5"/><ellipse transform="rotate(-47.521 262.538 151.915)" cx="262.5" cy="151.9" rx="1.5" ry="1.5"/><ellipse transform="rotate(-47.521 314.467 326.63)" cx="314.5" cy="326.6" rx="1.5" ry="1.5"/><ellipse transform="rotate(-47.521 275.984 313.504)" cx="276" cy="313.5" rx="1.5" ry="1.5"/><ellipse transform="rotate(-47.521 265.524 343.042)" cx="265.5" cy="343" rx="1.5" ry="1.5"/><ellipse transform="rotate(-47.521 224.408 352.119)" cx="224.4" cy="352.1" rx="1.5" ry="1.5"/><ellipse transform="rotate(-47.521 249.108 385.388)" cx="249.1" cy="385.4" rx="1.5" ry="1.5"/><ellipse transform="rotate(-47.521 328.88 298.156)" cx="328.9" cy="298.1" rx="1.5" ry="1.5"/><ellipse transform="rotate(-80.932 102.945 376.05)" cx="102.9" cy="376" rx="1.5" ry="1.5"/><ellipse transform="rotate(-88.222 66.164 319.685) scale(.99998)" cx="66.2" cy="319.7" rx="1.5" ry="1.5"/><ellipse transform="rotate(-88.222 111.288 316.8) scale(.99998)" cx="111.3" cy="316.8" rx="1.5" ry="1.5"/><ellipse transform="rotate(-40.23 287.005 169.607)" cx="287" cy="169.6" rx="1.5" ry="1.5"/><ellipse transform="rotate(-21.596 342.2 199.091)" cx="342.2" cy="199.1" rx="1.5" ry="1.5"/><ellipse transform="rotate(-21.596 321 245.125)" cx="321" cy="245.1" rx="1.5" ry="1.5"/><ellipse transform="rotate(-21.596 302.804 199.116)" cx="302.8" cy="199.1" rx="1.5" ry="1.5"/><ellipse transform="rotate(-40.226 291.873 131.305)" cx="291.9" cy="131.3" rx="2.5" ry="2.5"/><ellipse transform="rotate(-40.23 121.419 201.978)" cx="121.4" cy="202" rx="2.5" ry="2.5"/><ellipse transform="rotate(-40.23 294.134 283.27)" cx="294.2" cy="283.3" rx="2.5" ry="2.5"/><ellipse transform="rotate(-40.23 213.44 391.093)" cx="213.5" cy="391.1" rx="2.5" ry="2.5"/><ellipse transform="rotate(-40.23 22.088 314.878)" cx="22.1" cy="314.9" rx="2.5" ry="2.5"/><ellipse transform="rotate(-47.521 155.167 132.392)" cx="155.2" cy="132.4" rx="1.5" ry="1.5"/><path d="M158.4 223c-1.3.7-2.7 1.2-4.1 1.5-.5.1-.8.6-.7 1.1.1.4.5.7.9.7h.2c1.6-.3 3.2-.9 4.6-1.7.4-.2.6-.8.4-1.2-.3-.5-.8-.6-1.3-.4zm-6.7-1.4c3.6 0 6.8-1.8 8.8-4.5 1.3-1.8 2.1-4 2.1-6.4 0-5.4-4-9.9-9.2-10.8-.6-.1-1.1-.1-1.7-.1-6 0-10.9 4.9-10.9 10.9s4.9 10.9 10.9 10.9zm0-20c5 0 9.1 4.1 9.1 9.1s-4.1 9.1-9.1 9.1-9.1-4.1-9.1-9.1 4.1-9.1 9.1-9.1z"/><path d="M149.8 198.5c1 0 1.9-.6 2.4-1.4.1-.1.1-.2.2-.4 7.4.4 13.3 6.5 13.3 14 0 3.6-1.4 7.1-3.9 9.7l-.3.3c-.4.4-.4.9 0 1.3.2.2.4.3.6.3.2 0 .5-.1.6-.3 3-3 4.7-7 4.7-11.2 0-8.5-6.7-15.4-15.1-15.8-.4-1.1-1.4-2-2.6-2-1.5 0-2.8 1.2-2.8 2.8s1.4 2.7 2.9 2.7zm0-3.8c.5 0 1 .4 1 1s-.4 1-1 1-1-.4-1-1 .5-1 1-1zm-35.4 52.7c-2.5 1-3.7 3.9-2.6 6.4.5 1.2 1.4 2.1 2.6 2.6.6.2 1.2.4 1.9.4.6 0 1.3-.1 1.9-.4 1.2-.5 2.1-1.4 2.6-2.6s.5-2.5 0-3.7c-1-2.6-3.9-3.8-6.4-2.7zm4.7 5.7c-.3.8-.9 1.3-1.7 1.7-.8.3-1.6.3-2.4 0s-1.3-.9-1.7-1.7c-.6-1.6.1-3.4 1.7-4 .4-.2.8-.2 1.2-.2 1.2 0 2.4.7 2.8 1.9.4.7.4 1.5.1 2.3zm-46.7 90.8c-1.9-2.3-4.2-4.2-6.8-5.6.2-1 .1-2-.3-2.9-.5-1.3-1.6-2.4-2.9-2.9-1.3-.6-2.8-.6-4.1 0-1.3.5-2.4 1.6-2.9 2.9-.1.2-.1.4-.2.6-1.9.1-3.7.4-5.6 1-5.3 1.7-9.6 5.4-12.1 10.4-1.4 2.7-2.1 5.7-2.2 8.7-4 2.5-8.2 6.1-7.2 9.4.8 2.4 4.2 3.4 8.9 3.4.6 0 1.3 0 2-.1 2 2.8 4.6 5.2 7.7 6.8 3 1.5 6.2 2.3 9.4 2.3 2.2 0 4.4-.3 6.5-1 9-2.9 14.6-11.4 14.4-20.4.1-.1.2-.1.3-.2 5.1-3.4 7.3-6.5 6.5-8.9-1.1-3.5-6.7-3.8-11.4-3.5zM57 336c.4-.9 1.1-1.6 1.9-1.9.4-.2.9-.3 1.4-.3s.9.1 1.4.3c.9.4 1.6 1.1 1.9 1.9.4.9.4 1.9 0 2.7s-1.1 1.6-1.9 1.9c-1.8.8-3.9-.1-4.7-1.9-.3-.8-.3-1.8 0-2.7zm-18 12.2c2.3-4.6 6.2-7.9 11.1-9.5 1.6-.5 3.2-.8 4.9-.9 0 .6.1 1.1.4 1.7.9 2.1 2.9 3.3 5 3.3.7 0 1.4-.1 2.1-.4 1.1-.5 2-1.3 2.6-2.4 4.2 2.2 7.6 6 9.2 10.9.5 1.5.8 3 .9 4.4-4.5 2.8-10.4 5.5-17 7.6-7 2.3-13.4 3.6-18.2 3.9-.8-1.3-1.4-2.6-1.9-4.1-1.8-4.8-1.4-9.9.9-14.5zm-9.3 16.6c-.4-1.2.9-3.5 5.5-6.7.1 1.7.4 3.5 1 5.2.4 1.3 1 2.5 1.6 3.7-4.6.1-7.6-.7-8.1-2.2zM62 375c-4.9 1.6-10 1.2-14.6-1.1-2.6-1.3-4.7-3.1-6.4-5.3 5.4-.5 11.7-1.9 17.6-3.9 6.3-2.1 12-4.6 16.5-7.3-.2 7.8-5.3 15-13.1 17.6zm14.8-20.8c-.2-1.3-.4-2.6-.9-3.9-.6-1.7-1.3-3.3-2.3-4.7 5.6-.2 8 .9 8.4 2.1.4 1.2-.8 3.5-5.2 6.5zm53.9-227.7c0-.2 0-.3-.1-.5-.2-1.3-.9-2.3-2-2.9-.5-3.7-3.7-6.6-7.6-6.6-4.2 0-7.6 3.4-7.6 7.6 0 .7.1 1.3.3 1.9.9 3.3 3.8 5.7 7.4 5.7 1.7 0 3.3-.6 4.5-1.5.4.1.8.2 1.2.2 2.2 0 3.9-1.7 3.9-3.9zm-9.6 3.4c-2.5 0-4.7-1.6-5.5-3.9-.2-.6-.3-1.2-.3-1.9 0-3.2 2.6-5.8 5.8-5.8 2.7 0 5 1.9 5.6 4.4-1.9 0-3.5 1.5-3.8 3.4 0 .2-.1.3-.1.5 0 1 .4 2 1.1 2.6-.8.4-1.8.7-2.8.7zm5.7-1.3c-1.2 0-2.1-.9-2.1-2.1 0-.2 0-.3.1-.5.2-.9 1.1-1.6 2-1.6s1.8.7 2 1.6c0 .2.1.3.1.5 0 1.2-.9 2.1-2.1 2.1zm60.3 148.2c-4.2-.6-8 2.3-8.6 6.5-.2 1.7.1 3.3.9 4.7-.2.4-.3.7-.4 1.1-.1 1 .1 2.1.7 2.9.6.8 1.5 1.4 2.6 1.5h.6c.8 0 1.7-.3 2.3-.8.3-.2.6-.5.8-.8h.1c3.7 0 7-2.8 7.6-6.6.5-4-2.4-7.9-6.6-8.5zM185 290c-.1.6-.4 1-.8 1.4-.4.3-1 .5-1.6.4s-1-.4-1.4-.8-.5-1-.4-1.6c.1-1.1 1.1-1.8 2.1-1.8h.3c1.1.2 1.9 1.3 1.8 2.4zm6.9-4.8c-.4 2.7-2.5 4.7-5.1 5 .2-2.1-1.2-4-3.3-4.3-1-.1-2 .1-2.8.7-.4-.9-.5-1.9-.4-3 .4-2.9 2.9-5 5.8-5 .3 0 .5 0 .8.1 3.2.4 5.4 3.3 5 6.5zm49.9 33.3c-.4-.3-1-.1-1.2.3l-2.8 4.3c-1.3 2-3.2 3.3-5.5 3.8s-4.6.1-6.6-1.2c-4.1-2.6-5.2-8-2.6-12.1l1.2-1.8c.3-.4.1-1-.3-1.2-.4-.3-1-.1-1.2.3l-1.2 1.8c-3.2 4.9-1.7 11.4 3.2 14.6 1.7 1.1 3.7 1.7 5.7 1.7.7 0 1.5-.1 2.3-.2 2.8-.6 5.1-2.2 6.6-4.6l2.8-4.3c.1-.6 0-1.1-.4-1.4z"/><path d="M228.9 311.6c-1.8.4-3.3 1.5-4.3 3s-1.3 3.4-.9 5.2 1.5 3.3 3 4.3c1.1.7 2.4 1.1 3.7 1.1 2.3 0 4.5-1.1 5.8-3.1 1-1.5 1.3-3.4.9-5.2s-1.5-3.3-3-4.3c-1.6-1-3.4-1.3-5.2-1zm4.2 2.5c1.1.7 1.9 1.9 2.2 3.2.3 1.3 0 2.7-.7 3.8-1.5 2.3-4.7 3-7 1.5-1.1-.7-1.9-1.9-2.2-3.2s0-2.7.7-3.8c.7-1.1 1.9-1.9 3.2-2.2.4-.1.7-.1 1.1-.1.9 0 1.9.3 2.7.8zm-8.3-4.9c.2.1.3.1.5.1.3 0 .6-.1.8-.4l2.7-4.3c.3-.4.1-1-.3-1.2-.4-.3-1-.1-1.2.3l-2.7 4.3c-.4.4-.3.9.2 1.2zm7-10.9c-.4-.3-1-.1-1.2.3l-1.3 2c-.3.4-.1 1 .3 1.2.2.1.3.1.5.1.3 0 .6-.1.8-.4l1.3-2c.1-.3 0-.9-.4-1.2zm8.7 4.3c-.4-.3-1-.1-1.2.3l-4.4 6.8c-.3.4-.1 1 .3 1.2.2.1.3.1.5.1.3 0 .6-.1.8-.4l4.4-6.8c.1-.3 0-.9-.4-1.2zm7.2-11.2c-.4-.3-1-.1-1.2.3l-5.5 8.6c-.3.4-.1 1 .3 1.2.2.1.3.1.5.1.3 0 .6-.1.8-.4l5.5-8.6c.2-.4.1-.9-.4-1.2zm-15 14.3c-.4-.3-1-.1-1.2.3l-1.4 2.2c-.3.4-.1 1 .3 1.2.2.1.3.1.5.1.3 0 .6-.1.8-.4l1.4-2.2c.1-.3 0-.9-.4-1.2zm7.2-11.1c-.4-.3-1-.1-1.2.3l-5.2 8.1c-.3.4-.1 1 .3 1.2.2.1.3.1.5.1.3 0 .6-.1.8-.4l5.2-8.1c.1-.3 0-.9-.4-1.2zm9 12.8c-.4-.3-1-.1-1.2.3l-5.2 8c-.3.4-.1 1 .3 1.2.2.1.3.1.5.1.3 0 .6-.1.8-.4l5.2-8c.1-.4 0-.9-.4-1.2zm-6.7 1.3c-.4-.3-1-.1-1.2.3l-2.6 4c-.3.4-.1 1 .3 1.2.2.1.3.1.5.1.3 0 .6-.1.8-.4l2.6-4c.1-.3 0-.9-.4-1.2zm4.4-8.5l-3.9 6c-.3.4-.1 1 .3 1.2.2.1.3.1.5.1.3 0 .6-.1.8-.4l3.9-6c.3-.4.1-1-.3-1.2-.5-.2-1.1-.1-1.3.3zm-63.8 45.6c-.9-.4-2-.8-3-1.2v-.2c-.2-4-1.6-7.8-4-11-3.2-4.3-7.9-7.1-13.3-7.8-5.3-.7-10.6.6-14.9 3.9-3.2 2.4-5.6 5.7-6.9 9.5-.1.1-.1.2-.2.4v.3c-.3 0-.7.1-1 .1-6.2.8-9.8 2.5-10.4 5v.9c-.1 4 2.6 8.4 7.5 12.3 2.4 1.9 5.1 3.5 8.1 4.8l-12.5 17.4c0 .1-.1.1-.1.2l-.1.2v.1c0 .1-.1.2-.1.3v.1c-.7 4.9 21.1 8 22 8.1.5.1 7.5 1 13.7 1 4.9 0 9.4-.6 9.7-2.8v-.7c0-.1 0-.1-.1-.2l-7.1-19.9c11.2-1.2 20.4-6.1 21.7-12.5 0-.1 0-.1.1-.2v-.3c-.4-2.7-3.4-5.3-9.1-7.8zm-41.1-4.2c.9.7 2.3 1.4 4.3 2.1 3.5 1.3 8.2 2.4 13.2 3.1 3.4.5 6.9.7 10 .7 1.3 0 2.6 0 3.8-.1 2.4-.2 3.9-.5 4.9-.8 0 .5-.1 1-.1 1.4-1.1.9-9 1.8-18.8.4-10.9-1.5-17.2-4.4-17.5-5.4 0-.5.1-1 .2-1.4zm6.9-10.7c3.2-2.4 7-3.7 11-3.7.9 0 1.7.1 2.6.2 4.8.7 9.1 3.2 12.1 7.1 2.2 3 3.5 6.4 3.7 10-1.2.8-8.2 1.9-18.4.4-10.5-1.5-16.6-4.2-17.2-5.4 1-3.3 3.2-6.4 6.2-8.6zm-17.9 14.4c.2-1.3 2.6-3 8.9-3.8h.3c-.1.4-.2.9-.2 1.3-.1.9.3 2.4 5.7 4.4 3.6 1.3 8.3 2.4 13.4 3.1 3.5.5 7 .7 10.2.7 1.3 0 2.6 0 3.7-.1 6.6-.5 6.8-1.9 6.9-2.5.1-.6.1-1.2.2-1.8.8.3 1.6.6 2.3.9 5.8 2.5 7.7 4.8 7.5 6.1-.2 1.7-3.5 3.2-8.9 3.8-.4-.9-1.2-1.6-2.2-1.8-1.5-.2-2.8.8-3.2 2.2-3.9.1-8.5-.1-13.6-.7-.1-.4-.2-.8-.5-1.2-.5-.6-1.1-1-1.9-1.1-.8-.1-1.5.1-2.1.5-.3.3-.6.6-.8 1-4.6-.8-8.8-1.7-12.3-2.8 0-.6-.2-1.2-.6-1.8-.5-.6-1.1-1-1.9-1.1-.8-.1-1.5.1-2.1.5-.2.2-.4.3-.5.5-5.5-2-8.6-4.5-8.3-6.3zm48.4 13.3c-.1.6-.6 1-1.2.9-.3 0-.5-.2-.7-.4-.2-.2-.2-.5-.2-.8.1-.5.5-.9 1-.9h.1c.7.1 1.1.6 1 1.2zm-19.1-.7c-.1.6-.6 1-1.2.9-.6-.1-1-.6-.9-1.2 0-.3.2-.5.4-.7.2-.1.4-.2.6-.2h.1c.3 0 .5.2.7.4.3.2.3.5.3.8zm-17.7-4.2c0 .3-.2.5-.4.7s-.5.2-.8.2-.5-.2-.7-.4c-.2-.2-.2-.5-.2-.8s.2-.5.4-.7c.2-.1.4-.2.6-.2h.1c.3 0 .5.2.7.4.3.2.4.5.3.8zm11.4 33.6c-13.1-1.8-20.1-4.9-20.5-6.1.7-1.1 8.3-2 21.4-.2 13.2 1.9 20.2 4.9 20.5 6.1-.6 1.1-8.2 2.1-21.4.2zm20.3-3.2c-5.8-3-18.4-4.8-19.1-4.9-.7-.1-13.3-1.8-19.7-.6l11-15.2c3.5 1.4 7.2 2.4 11.1 2.9 2.3.3 4.6.5 6.9.5 1.2 0 2.4 0 3.6-.1l6.2 17.4zm-16.5-19.5c-7.7-1.1-14.8-3.9-20-8-2.7-2.1-4.6-4.4-5.7-6.6 1.7 1.3 4 2.5 6.8 3.6 0 .6.2 1.2.6 1.8.5.6 1.1 1 1.9 1.1h.4c.9 0 1.7-.4 2.2-1.1 3.9 1.2 8.2 2.2 12.6 2.9.2 1.2 1.1 2.2 2.4 2.3h.4c.6 0 1.2-.2 1.7-.6.4-.3.6-.6.8-1 3.9.5 7.9.7 11.5.7h2.4l.3.6c.5.6 1.1 1 1.9 1.1h.4c1.3 0 2.4-.9 2.7-2.1 2.4-.3 4.6-.8 6.3-1.4-5.1 4.9-16.7 8.5-29.6 6.7z"/><path d="M147.6 337c.3 0 .6-.1.7-.4.6-.8 1.3-1.6 2-2.3.4-.3.4-.9.1-1.3-.3-.4-.9-.4-1.3-.1-.9.8-1.6 1.7-2.3 2.6-.3.4-.2 1 .2 1.3.2.1.4.2.6.2zm5.1-4.6c.1 0 .3 0 .4-.1 2.4-1.3 5.2-1.9 7.9-1.6.5 0 .9-.3 1-.8 0-.5-.3-.9-.8-1-3.1-.3-6.2.3-8.9 1.8-.4.2-.6.8-.4 1.2.2.3.5.5.8.5zm60.7-203.9c.6 0 1.2 0 1.9-.1 4.5 4 10.1 6.5 16.2 7 .8.1 1.5.1 2.3.1 6.5 0 12.8-2.3 17.8-6.6 1.1-.9 2.1-1.9 3-3 4-4.6 6.3-10.4 6.6-16.3 6.9-6.2 10-12.6 8-17.5-2.1-5.1-9.2-7.6-19.6-6.8-10-7.1-24-6.8-33.7 1.5-5 4.3-8.1 10-9.3 16-8 6.7-11.3 13.5-9.3 18.6.7 1.8 2.1 3.3 4.1 4.4 2.7 1.6 6.6 2.4 11.3 2.5.3.2.5.2.7.2zm38.8-2.5c-.5.6-1.1 1.1-1.7 1.6-5.2 4.5-11.9 6.6-18.8 6-5.1-.4-9.9-2.3-13.8-5.4 3.8-.3 7.9-1.1 12.2-2.3 2.9-.8 5.9-1.8 8.9-3 .9 1.4 2.1 2.4 3.7 3 .8.3 1.6.4 2.4.4s1.7-.2 2.4-.4c2.8-1 4.8-3.7 4.8-6.8 0-.9-.2-1.8-.5-2.6 2.8-1.7 5.3-3.4 7.5-5.2-.7 5.5-3.1 10.6-7.1 14.7zm-1.7-6.8c0 3-2.4 5.4-5.4 5.4s-5.4-2.4-5.4-5.4 2.4-5.4 5.4-5.4c3 0 5.4 2.4 5.4 5.4zm17.1-26.3c1.5 3.8-.9 9-6.3 14.3-.2-6-2.3-12.1-6.5-17-.9-1.1-1.9-2.1-3-3 8.3-.4 14.2 1.7 15.8 5.7zm-50.5-4.6c4.8-4.1 10.8-6.1 16.7-6.1 7.3 0 14.6 3.1 19.7 9.1 4.3 5.1 6.3 11.3 6.1 17.5-2.4 2.1-5.3 4.2-8.6 6.2-1.3-1.8-3.5-3-5.9-3-4 0-7.2 3.2-7.2 7.2 0 .7.1 1.5.3 2.1-5.6 2.2-11.2 3.8-16.5 4.6-2 .3-3.9.5-5.7.6l-.6-.6c-.4-.4-.8-.9-1.2-1.3-9.3-10.8-8-27.1 2.9-36.3zm-18 32.6c-1.6-4 1.1-9.5 7.2-15.2-.6 7 1.5 14.3 6.5 20.1l.2.2c.2.2.4.5.6.7h-.7c-2.3 0-4.4-.3-6.3-.7-3.9-.9-6.5-2.7-7.5-5.1z"/></g></svg>